<mxfile host="Electron" modified="2023-06-16T14:59:41.219Z" agent="Mozilla/5.0 (Windows NT 10.0; Win64; x64) AppleWebKit/537.36 (KHTML, like Gecko) draw.io/21.4.0 Chrome/112.0.5615.204 Electron/24.5.1 Safari/537.36" etag="2kJDLfpqAdMdgDx8rWGb" version="21.4.0" type="device">
  <diagram name="Page-1" id="-FK09hKMwLYkTbzEma5v">
    <mxGraphModel dx="1292" dy="1162" grid="1" gridSize="10" guides="1" tooltips="1" connect="1" arrows="1" fold="1" page="1" pageScale="1" pageWidth="827" pageHeight="1169" math="0" shadow="0">
      <root>
        <mxCell id="0" />
        <mxCell id="1" parent="0" />
        <mxCell id="BEOgguU4NRtYo971RN-K-2" value="" style="shape=image;verticalLabelPosition=bottom;labelBackgroundColor=default;verticalAlign=top;aspect=fixed;imageAspect=0;image=data:image/png,iVBORw0KGgoAAAANSUhEUgAAAXMAAAE1CAYAAAAVuwDjAAAAAXNSR0IArs4c6QAAAARnQU1BAACxjwv8YQUAAAAJcEhZcwAADsMAAA7DAcdvqGQAAGQSSURBVHhe7Z0J3H7VtPif+7/3uoOxQQhRSpM0T5TmLg1kKI2KDJnShCJD7pUkIpRISYPmGWmQBhTSIA2UVFLIcI137v9+F9/Hajvv+Pv9Xu973vX9fNbn7OcMezr7WWfttffZ528eHGFQFEVRzGr+35+2RVEUxSymlHlRFEUPKGVeFEXRA0qZF0VR9IBS5kVRFD2glHlRFEUPKGVeFEXRA0qZF0VR9IBS5kVRFD2glHlRFEUPKGVeFEXRA2a0Mv/f//3fEJaPcQmZ//7v/w7JeF4xeXLd/d///V9IZrzjs51cvhbL2y5f1FUPtlHPz9fkcFdaeV97bTF78N6Nd//+53/+50+hP9O2p642Nh6zYqEts/g3f/M3sYX8B/jbv/3bP4WKqdIqlL/7u7+LcG5Q/+//9b8jR9kts+XN7Q40Jv7+7/8+tpzfVTfWKcdyHP6ZrWNo2zjn5OPFzMT7Rhsw3HXfuJ+2Ec6zbTzsYQ+LLfvadjZZ+v/vLIqimAPMWMs8Z0tLiSdXtoC0kLTMu6yjYmxy3WoZZMuh79bhf/3Xf8XWNtTVy7OOYLQ2lq1t226uQ8Nd8XO+12vtFzObse5nF9zjbHnbRrr25XPz8fEo7VcURdEDZrTPvMu32MVkn5LFX/KHP/xh6L/rqkfqeC7Ub7aKRqMdgMeaHq2HAzk+rrU9Z8tdJtrmi5mB9917CfTe7MHle28vkP9Z2zaIJ/f6utrOeMxoZW5F5UJ2dWcnU+DioeQ6zGEbZ26UXfdjtjOWIdD11xivrbV/SujaNxqlzGcH/hdsD2278LiMdv/z/yzHMRXd1p9/ZVEUxRxmVgyA+nRiX+6a2t3VipnMU6z4I9kS/N3vfhdh3AZ5yhRQtzncF7rKNFYPhDb3i1/8IsKLLLJIbLMVTfv0+jyYmdP55S9/GeF//Md/jO0//dM/Dduy13B+tefZA/fce5ytbPfRLnSz/PM//3NsWzwXpnLvyzIviqLoAbPipSH50Y9+NLjhhhsivOqqqw4WX3zxCFuEsmQmz49//OPYfuELXxjccccdEaZut9tuuwgLVoXWep+wp5fbTmuR//SnPx1885vfjPB11103+OEPfxjh17/+9bF9xjOeMfS5c21r2fPb8Fe+8pXBFVdcEeF/+Id/iO3mm28edZ75z//8z+HxYubRdY+Ffdw/+M53vhNb2s1vfvObCL/iFa8Y3lt7Z7S/edVjM1qZ58EBOPPMMweHHnpohKmQV73qVRGuWSxT58gjj4ztxz/+8cHNN98c4RVWWGFw7LHHRnjNNdeMLfegjw9Ny+QWF8r3vve9CFsfN9544+Caa66J8E033TT4/e9/H+GLLrootpttttmwC42bxLjyH13XzAEHHDA4+eSTI2w8b3nLWwbveMc7Iuw1o3XFi5lBq8z//d//ffDd7343wt///veHD/xvfetbw+1iiy0W4QsvvHCw8MILR1ilnh/4MJX/2p+vLoqiKGYt02aZt8mM9sTJ5xn2ifXc5z53cOmll0Z4yy23HBx99NERftzjHhfbTH7S+RQlPtPNT8GpYN7Ge3LmNCeDvRJ6HV3T1bJlkM+FXIcZ80F8uA5gjz32iO35558/vJ743vnOd0b4oIMOii1xGu+81t1UyGWaTH121UXX9bqbTjnllKgLoGsMWF1aUHSfvQ9YWLDhhhsO6y63O9Nm3/XXXx/hHXfccWj5O9j59Kc/ffCZz3wmwssvv3xsH/7wh8dWvMdCGpYjlzG3i1zOth4mU4fjYdzEafpsc3uVXCcwkV6117Dtans5fZnoNeSjzQP7jCvH6T1gq8vRgevXve51g0suuSTCtBcHuYW6WGeddSKMq03yf9a0cngyzDg3i9lha+Xpa2L2gDfmUY961OCcc86J8HOe85zY0tXNlWM430zjn0plgY0wx2kXG9zfpXhJsyvdXGYYrTF5PDe+Lt8q17cNmGtzXHbx7d5/+MMfHuaThnr22WdH+NnPfnZsH/3oR8d2urHMkMPQVZ9tOcfDOL2GB53t7qtf/Wps3/3udw+uvPLKCFPX/oG/9KUvxXY0ZW59wn333RdbxiLsehsPf/Kzzjorwk94whNiS77yDJfJlKkl19u8xJOZTD2bfm7XbfsUz3XLee2+lq648jWmOVp+vU+j5WkioAN48Q5OO+20wYc+9KEI43IB2pR6CmWeywdtu5lKXqae+6IoimLGMCvmmb/5zW+O7Qc/+MHYAk+uXXfdNcKf/vSnYwv56WsceZ9WF9eP9qSeLGM92bH0urqbU8EnP/OSdb386le/im4dPOUpT4kt+THN/LSXnE8HbT772c/G4B5gQbzxjW+MsANx9I7s+neV869BbiNd97KraY93z7NV5PVHHHHEYN99940w7Ucr3AHQjTbaaBhv1/XAfQJmN9iOH/GIR8R2r732Gg4057aUw2Kc5KNrf1fa+bwFQW5b1sNk/ltezzWTuQ4oZ1v2+YFxdpUtp5P/k8LMJ3u8X/7yl2ML6667bmzLMi+KoihGZcZa5vgLtRR32mmn2P7gBz8YPik57ht4X//612P7tKc97SFPPM/NfvT2iThVjJt48gClT2oHSLJ/G0w/bw1nq8b8Zcs+n3f33XdH+P3vf//gSU96UoSZ9iZtnF3pgD0V0nBuLOGufOfrpgPKbprUx1TSt8ztVryP+W3NfD+BXstuu+0WYfJgPi6++OLYYplLtqq66jvfT+s7t0XHh5y6BsTTxjWVuoCuesjpTxTrDUa73nNMq21T0pYtY/uEibYB4hvvPNMkj1k/uB2vni1bLrv3k2mob3/72yN83HHHxRb0mV922WWxBa9v281Eytky+bs4j5BRK20sKNhJJ50UwsgwwiADStyBoZ///Ochn/zkJ0O4hhuD2A1FTNMKQ+aVHI9pAt0tJO8jXaRtmAjn8OdWgSI5f/kay0H56aojxxxzTDxAEBQFYnqI+7jONGkoimlzDoN7CGl6/X/8x3+EAPWfB3sXNLlOcuO2Hsin4j7ybBgsZ67vLChxxHjAOuPPiRgfQlyGrSPC0u5vzyUPpmV9O8CJoMQR75nXiudB1/G8T+nC+kCmQtf1lMm6A/NqXXPc/2/OW1eZJN8rzsnlQvK5YhwI51jf7gPTRPJ+oEweyxgP/4G27GBbos20/xWMu5zmgmBqd7IoiqKYUUyLMvfJl59+o+F5vLpPdwS5//77Q3beeec/nfXn12Dhc5/7XAjnSH4KKvlJyhN7KmSrAMll46ndglXrUxzJ5ytaM0o+xjWmZRzMWeZtWCRbHLmcWjNa3uwTzpWcrmBFaFlQzwjxGtd0QT7NG9acllHGMueyG+Z6r8nldB+ipWgdgmW2vFhbwjk5PdPJuD/jvcttxvzke5v3SU5Lct5HO9c4uzAdZKqQbk67rQfLKbRHrdeuvLXXg3WBcDyXTxHTI16P5bDHMx7LAp6b24p51oUKnpd7cPlc48zWfJtWS67TyTAtyjwzWiG8YcoFF1wwuOeee0JWXnnlkP322y/WwUCykuQFGOT4448f/Pa3vw2hkdtYjTOny3VTwTSNM+8jT954yQ8dzwfrAVHxKuyzYdDwTevqq68Oec1rXjO49957Q0iLWSaI8XGdf/ScH+PM+7sUNHWmC0Clzj7LOV1QFtOkHnL9INSJ91uX269//etY/RGhnF5vOZFc161ywV1lfXsO8YhpI10QRz7H84yzzQvCPfFc2ywKI1/jcfeRL85BiMP7pGuIOtE9SdjjtoGc/lQxrwp1Z7sD0xLddRnKkq+xnF7rfWnr1eO0YcMeIx33QXt9i+dat4jn2gYQ/zPUL35xhLQQjpsOs5R0t8p49Wxe54VpV+ZFURTF/GdGzGbxqQhumT3gW4i8gQdYpM5/5i0rn+Zes9566w2vWXTRRWMLuYhek7tKk8HX4LGKgSfyM5/5zAiTDywUoEcBP/vZz8IyAqx0Z+C46A5vshIHaDVk64E3NV157SMf+UhseVswl+llL3tZbPfcc8/YkgePmx5vFmodkE/DWGuAReFiULza7hzopZdeOrZgPXPudOH9okxYRIAFDixmdNddd0XYvIP3/qlPfWoIWN95ASstLbA95Hr1Ppx44omDXXbZJcLg/Rrtdf4cdmu81J3l8P0A3IO++fn4xz8+tl4Lub7NL2l4zk9+8pNhe7zllltiy6wY06HX5gqjSyyxRGyZAbXQQgtFOLe3iYLF72JStnVmWNGbg2WWWWbw2Mc+NsLWPb0ml96wfYHlyOXUiuc/43HK5P/vgQceiC3neZ1tmrLxv4L8/xoP7xHbnBffEbCc1Ldl9/9OeW1r7Pu3f/u3CNN2gDysv/76EcZ13JaZ313hyTD5K4qiKIoZx7RY5lgT7dORp1f2I5kN1614yUteMnzjkGmHwBoWn//85yO8//77D26//fYI+3TEAmApV3jxi1/caYX7NR3izk9i4GnoPN9HPvKRscVKdflTtnfeeWeEtZaJx7WuWQ+cgVjw7UDW9/ApTHmXWmqpCLNoGLzrXe8aPOYxj4mwT2Pyo7XE2MGBBx4YYdd5wJq2zKAVovWFJWGZn/WsZ8UWC8F7gDVj/Ndee21sWVTKhYJYM3777beP8Hve857YQr5f00W2ynyr7tvf/nZsb7vttsGTn/zkCK+44oqxxWK0TFi+m2yySYR9V4F2NVY5ct3bLk444YTh28bgfdIyJw330ebwwWfwJWtJMnjtmi9f+9rXYkubfOtb3xph2i2QB+OkDnIbBY67IBjz4C+//PIIa/GyeJe9Mixm60wreeuttx4cfvjhEe6yXGkjebwH+B9rkR522GHDctj+eM/DdsnywfYMsFqBa/0egeT6zlhe7qfpYNG6Ho5r3dDWPdf1gxhTo3ywzTbbDJZddtkId5HTNx5+22PlP+99ph0AvWUXRLOnRFtcbrnlIrzpppsO7615pz7z2iy263yPu8KTYdrcLN5Y/0g0IAtEFrhpQMMEVuvzJRjcK0C30JvIH9uV5iwCcfpRhYMPPnjYpfTGZKVOfuwS2gCJxz+i63l/7GMfG86SMe3MxhtvPPxT7LPPPsM/VVa2/llI37zajURZqqRsGDQmF8KikfhKMGHgQxI5L8973vNiy0cOgPKaJn9qoHH7AOKB45/KNbtxB/mgg7333ju2LhgE3kPrbTxy0+r6w44HdcisJuDlKO+3DZ08uqa9CgXF+cUvfjHCzMFnwBhQNPDRj350+CCFNl/kuf1zt8rcNmw6/Hm9d2DdmzZtyGUTUKzWo8YGrgdfMrE8+c9MPsyL+3n/wmvo/tsG7N7jrnEADleU69b7EgvxvPa1r43we9/73tjS9rsedP5PeSDtvvvuEcbIsL25nAbK1HpgZUgNG92DuRzGSV3ndmXd64I69dRThwYF+WN1QvBjHijzq666KsKnn356bMmnDzWMJ//LK620UmxJ27rvasscJ10g7VtvvTXCr3zlK2NLW2jXI+f/oyFJu7B86jXq1UXrFpQyn/wVRVEUxYzjrzYAyhNcCwa0XHbYYYfYYk1o+egqIKtatKw77YCfVixPtNVXXz3Cb3vb2wYvetGLIpyfguNZlx7/xje+EVue+lozLCeQrWfIn6/D3eKr3VtttVVssVa01ll/XTeOPQAW37H7Zk+CcmrZk2cHUH0NmHK7/jb5cSEyu+qUTcvDfGIZ6MIiPwzigAPG9D605EhbK4RFpoB7ZVyTweY1lWtBq4zejz0HB5poA6usskqEvcekh5UE5N1ek70zBouzddrC9ebVvI/mZtEtxQBoLp+DsXaxaUu2b9bjZyAQvIYuO706ePnLXx5bjuU4zb8Dvm9605uG/w9cfVq/DtRyD23j5Nc25oJhWK8u7qVljZvANGkvtiHLy6QD17+nl2yetfBbdMnY2+Bzed4nyVYo/z3z7Kf1WP9ddw9pOwEi/6cdoLQnYK8SKA+uNSD/4v+LcnqfjRNXmLqFpUKsJ5fcpiflNVmH2RPDq2DbMB3ysaDdLGRqWhi5USEjhQsZaZwPjjSWEPbvv//+ISNKLuTVr371gyN/ipAuRrrfD450W0JGKipkpGKHsv322z84ovBCujAfiIwoxj+FHnxI3m6++eaQFVdccRg/VaeMdNtDRv68EQdC+RDiN6799tvvwYc97GEhXjvyp3hwRCmFjDyoQqDNG1x88cUhI13oYT0Rx0jjCTFtGGkQIV3k+zCiBEJGuqMPjjSgEOIc+UOECPF25Wl+Yp6VEcX14IiyDhn50w3zt8IKK4Tce++9w7rNWA8jyvzBEUUXwvUI1913330h1ENLrjPzcfzxxw/vV5aRh2KIeWjzkff9/Oc/D3nd6173kHuHLLnkkg8ec8wxIZmu9nDSSSeFUCbb4iMf+cgHjz322JBMvl833HBDyEorrRRCPZqPESMjhHMtMxgeedCH7LTTTg+OKNuQEcX04MgDIaQLrrP85nnhhRd+cMSYCRHS9H5xzcgDIGTkgR0yojiH7f4Pf/jD8FzjzmHLO2JQDesm1/OIYRCSsX6A/y+y8sorD68n/REjKkT4X7d4n+C88857cMTIC8n52GCDDULAcsho4ckwBfVfFEVRzDSmTZmPPJlCRp5SIYRHnsQhI0+imG2BMEcYwV3BjBKE44hdTWCAhwEYZOShFMI5wmwSBmEQjyMjT9AQ84GYjxFrJVw2CN0vhEFLw7hT6C4hgmvCRa9wBxEHMvLEDyF+01577bVjoM7BOuAcBkkQ0kLIi3nLb9W5j8Ed4wfzL9SD+zwvHycN9zMXGMnXgMete8T0c30qk6HreqTFukIsA8KgLkKX3DwJ5xkfbYQ2k9sN9xZ3GUI9TAXbsvWS28OItf+n0B+78Aj3zgW0cE9YjlyfthvzTjkoH8K5tjvmySPE4zW4WZinjpC+efAa4jJ980Qa5gMXG0JevMZyIbgxEM41fgamcdshxsM1tlWuMy3aPcI9o+0iuMwQy4AQL++UILgREQYtmamE5Nk11h3XGVZe8IIXDO8NIi7Ix3+KOkE43/x7nA94ey0f2zZ94ZoW7pNlf+ITnxjfFkCMh7QWNGWZF0VR9IBpUeZYwvmJj/Ak1BLl+4o86RHmXCM8CbVSfOJmS4q4mJOLYJkg4LlYugxIIqbJNdnakZw3LR8hfa/3aY5onWFNaClmLBt4Lla8vQ33MSDq2jLmIz/FucZzLRvWiHVD2PzlfZ6rcFzLAawHr6U+uM5r2zQJG38XHsuS6dqf93UJ9cQAGMLUO3o+CAOOCPOorTPBEnQflp+WfS4blhkyVaxH6454tUKpU/PvedSd5Dr3PHoOWofmnbhsa/w2/wy4I9QH87cRerG8hYzk+2r8xMVUP8R0yJP5MO+cK/l62yxt0Xzw/2LQFdFC51zbDYO8xo+lijiFE/E/S9m09vkPMO0WsUfFvcNSRhi4Z0ASYRARYVIAA80IYYRpu+aT+MX1jHiD2HoGfiPEj1hnCBMqsn4B4rUcuS1ZdjwL9niFaxY006LMc/fIBp4Lx5xZC//85z8/JHdrrDjwem6ESpTG7CwSGwE3hDnFSL5xhjmuy8V9ngP5z0WXFvGPhZgPyH8Gr1MJkhf/lPwZuq634XktDwHLkbHRk2cxnSzEb1ymZ0NDMp5H+uQfoa7NswIeHw2PK8aNtMeQTNdxysLLS8gnPvGJmL2CMNcZ4Zy2nnAH8NEI5Iwzzhi6sCwHeVHhWf9TRZcB+ch/autcActEPbfHW+MBIa+2K86xHu2+8x4F5UMOPfTQcAEinkfdGcZdwbzwvHgddWZ78P/FuUIbNC+2f9w0tjHqlNk0CDNMEObTa5RRL57L/x9htpX7vB/UmfcDhaxh4z5mtbzhDW8IwXBjNhLiQ55ZRsw9R9zHrBbLTrk0rCwP9ZHzQRqIdUN9814CQpmtJ68Hr+c/jdCWTBNXnuWz7OqvBUm5WYqiKHrAtChzn2iITyqsSy0o3kZ0AMenK+f6RNRyzXGBlgtzkRHdGkCYudSIFgRWgFYIT1XzIsTrcdNknxZ8+3QGwj6ReaJ7nfGQD/OpNZgtQtNAvBa0JkDr0/xmS464tPBME3K4JVuyWhhgPojLus+YP9NDujAe6wVx32jSBXXOPH0Eq9PueraIhbdDEVwQW265ZQjuO+ve/GItWTdt+SaKdcb8f4Q60ULLdW7a7DP9XGbzwfVacp5H/NZdxmtwe/CaOkLd2K68nv/UC1/4whBeb8eSR0wHjD+nKez3ftvuiItFrPxModcxjx5hiQ0HC50DD+aZ+hHrJu9jnrZxeg3WOG9wIuedd95wkNJeGste2wPnrU2EOfW6YXh7mskQiC4c6kPIA++SIKbJPpY9QHCvdP0Xuv7HSr536g7iXNCUZV4URdEDFpgyzxZIfvr7xOIJpjXFsp2sG4L4IQqsWK/JTz2tBJ+AiFOftDhEi5Y1ExAsXePJ+RPjQyTnOZ9r3thnGIwzx+O+bDmZD+IdCywFrXStAXoYXfHnfa01Qd14HnFZJgXMG2JaWlBei7Bfq5Q3DhHK4r3xGu6h+SDNvB8h/PrXvz6EwTnrRCEu7yHnOkXOgW3WtHEQkDc9EZZO5kPgCD5cB6+0usiHZeR3C/tznQDlFfLl9Rnrhvo3LN4TyPstJ+WzTjIez7iPcw3jA8ZPjGy22WYhTM+zV8N4Aws/Ibw96xu01onlJazlTry2Acu7xhprDN75zneG0ENq64FztUR569IBa6xjhHZrnJLrGT1gGzEfDHKzdCzCm5gsaoYYN2NlhnnDUuFchOPus27o2ZIXBFifCLGtUg+25Xy/8n31XPfle0yZrBv/u5TFegbrvq2PeWFaLHMKaqYtPN1AGxiNmYGMLA50ICoMwl3HFWY4WMmkaYXSSBBf94XciKxYxArPFW8Dy9dMF/nP4p+XvGRyXoE/k/UsXOM+zjUuyed6Xt4H1if16/2knq3rNh/gNTku6xr8U9EGPFcB88k8aOcgs9QAwmvouhJYTQ9h8SleS/fV9NzNVYR4Lad5J2ya5oM/o/ty+XI+xyKXvQ0jo7U/oZ5z+gj1xaJ0CK/LOwiouweXiu4JFKuzxHKe839FsY5QPuZP4ToelsgHPvCBWLAsL1qW806ds1IjwoqVCMsrmKZwrtimEGFWjA/xXNfGw7mGcz06K422ZZktG9dYT5TLOe/WAXlyH/fePPmA6SLXFw8B4T4h5M/0id88K9zbjPU4GaZFmRdFURQLlmlT5vkJhDCfkwWJEObHsjgNovXFOt+Gs7C/FbrbCOt+L7nkkiE8kU2LudwIa6H7lOUJ7BPb89hn2KcseB5P/C48Phr5eI5XuvYJefEprRBXvsa6FbrgpqmlgnVg2XL5PA/JtPtGO+6AF70ilvhsxTnhdHPtIit0gf2mKxaLaAEhzg3+8Ic/PDjqqKNCfLOXRdmwxJH8hqPWEFhe42Nqp70BaMtJnXiuUH/W/UTI9wZyuK1HMA+tmA/urdNStR5pyw5qsqgTb0oi/hdYZE7XDfn2zWavR/wvWB+cZ91Rj7oIzA/7bE/E73+WRakQFqAyz1xnnbHwGcJCc+Q7/w/zfSdPuY0iTGDQSs7nen1u96ZNPKadr7Fs+RrOMS17ceC5uP/8f1kfpGv83uu2HIrkNmAa4PXEJbn8k2FalHnOPKu+ITRAb9K22247HCXXp8dcWhWz4jEk/3bu7VprrTVUIjRib64PDUa3nVOaK9cKHQ1vXFfl0si7MM6x4h2Lrmu9waRpnsBz/aPlhmGjohEKx70my1jk82jkdttf/epXh7B2OO8LIPpvGQ+xq89KhbhFEP7UCL5c54znz/ypPGg3vE6NMJfa+4k/GGG1SN9PsJyUnz8WQl7tTnucrrd/StKwTNYt4rmSj7Pfa5QW8z8entclpOX9BBWz88WZs83HShD+N6xjjvAfQOjqq5y43/qArUPiNS3HFUjTugEVmnBNrgd86AjfHUBYlZBvDyBcp8I1HeZwq/h5sQfhPPPEvO7croGxER/oPMxEBetDGayjnE/ageWwbMQl5Ku9j1yHGxhhPr158n6QrvHn/BpPzpPnUT7bVZ6NZt1kutrURCg3S1EURQ+YFmXuqDDiyDHzOn01mbW/fTornOtTz2uzeAzxiclT+aUvfWkIFkP71KPLZDePNMTrEfHanFbuSk2FnP9M3u+xHPbprrhftICEp39bHjDOHJfnUT6PZxHrAMlooTO7QSuZBa4QPulm74m12vmN2NPi7V3dI8RrXrRgGNxjDWmEe+u8apdx4L0Era5cN4azS8W8426zvmgDXm+7g7bsxouQP8PKeNiO2vPzvi7R0sS65itTiAvSYZFbJuqETyoilhe0Xmm3WubWDVjP1gduGCF943fRK2YLOesMrDvvO640elsI/zH+10juKbnIGevoI/7PENqDZTZtrGjPZQ123UUep9cl7st1CFrkuOoQBmN1/VAXugqFvFon9DB9K9X2ibTkNInTMmX0REBub+A9gRzXZCjLvCiKogdMizLnCeSTSn8qTyitaKw1rQSf4pyrFaEYB8K57XH28eUZZIUVVvhT6n+2bHmi8qUXxC+2QLYcfLp7DWnlJ37OAzIZ8pO26/r8NDZ98CmuJZTHILC8jCtfL3lftiwUr81iuRHJ+6jn1rLQokK0CDnXPBPOZYKc13xcq4hvL5omVrbWpW8Lc71Wl+dxvfcLDJsn8pz96ObZNkCdmL51R7wZ90sOg3nJuC/v79pn3OTZuqPMfP0G8W1L8kr+Eb5zqd/bsnG99xi0Lq0P6sl7aB6oHwda+W19G49WOUIerXvzQZ0Z5xZbbBHfFkVcNybfey30XA4W4jJ97xdxnnXWWSF8XNkph7YV8H65jzgtE/utMxcG4z0W15uhLlzbyfJQ5+aJ6a58JQrJ5fU+5XbjNYj3zvq2PAiYP48j4jFkMkyLMqdwfP0dsdtMN9uuoZWaC2RlIeORz7PbT5fPtdE9TuXyBX2EZQSc5WLFcVO6sDGTv65KzunnsHTtM542rrGwoWS4nrm4iA2LtDzXvENXw/MPkPPR5hU47rlcZ1zeN+L0j2x5Oe4fIMdvPJ6HcFzxD427wDDn8DFkhK+lI6Qlpk28vr/ACnqtmwWsry5y2cwPcfpH5HgL52QskxA2/bxfTKcV647yO5jpMcrqvUVROaBo2hz3evD1dl0m+d67oiJhH24oQePyHlD+008/PSSnLxy37kAXmi/1UH7rUdcMZRFccS60Z9yc6+wlBsJ55R/RZcGLa8apC4b/ue2ByQ6+mCZ8Os+yUWZfKuIFJQS8X7h5cPchpkm8LcQjrCBpnoW4vB/UNfWPeD8Ry5zrdDJMizIviqIoFizTosx5Ajp9ydfAeQLm7rJPV59M7JssWBM+8RgA1UoXLAaf3kybc7lOu0QZn9yIT+lsRfg0HY98Ti5T1/VdaYLWjmtzO40MId9arFpnWA5aW0wJRE444YRhdxTrwHBOL6evZdN13Lwh5sN6RzwPPK8Nw2jlt25YTMswaVimk08+OYTFnCyH5/ERYcvMVLm2XTFF1TeCgfMRl8rlHMtkfmwfCMdNazy8PsdBXsX6yHWSMc/cL1/Nzy4ioafpkhW6U7jGMtET5v4jDCIixGvaujxwn9iTufbaa4e9AesQtPD531gP3gMwTn4z7xyx3eKy8fgGG2wQwnm2NXroumZs8xy3XVFO3mZF+Ig0Qg/MN0TNB/u0xhHcdQhvoCIsoGWZSFc95NutlMk06ZG41DDLQyC0Ictu3imTdX/uuecO3361HNS37Y78qYdyj0tyeDJM+ev8NlLDNi4KBhTA4/zpmBcM/EkAPx+j8uAX9YFKAc+bDPxZaMRA42TGAzB7BoiTigPyt99++0WYxgMcp9LB8lCG22+/PcK8KMGaHxnO0/9Ol5I/Wob0aMTAHGzmZIM3jG6b+eAFKECJSS6TX53nhRsaJ1Df/tH88jr1yWwhYLU44IUq8g90o61nRvfhX//1X+MPAeSNjx8ADROoG++J93Uy5Aaa69h8sOWeAH9IOPLIIwdve9vbIkw9ei75B1YO5J0CwCcLuPL4AwJrtuBOA5QakA8/JIKLD5cD2Ab8EjtQ90Ae/Mo/ebBtnH/++bHlpah83/N/AIiH+wzcI9u99YDBQf0Dc7TFdKgPPs4AvCAF+HKNnzw5T9+y4bKwzMzvpi7Ah9idd945LB8KF5ZffvlhmPIwKwVQUEDauBuAJTV4YQiYyQTkJ5cdwwJYBRVok45lsXY58N+wnNwb68Qv/n/qU5+KLXCu/1/uPeCu9f9hfVDXujjY5/+Cl6mgzaegfIFymy55Mn/8v2G99dYb/j9YNgJoc7xrAazWmeeyi22EBwfvxQCfvQTemTCdqVJulqIoih4wactcq0lrEOgu5LeagHmmjEADXZSuASfWnAbmmrNYEGBRTBWs1TPPPDPCdBlZ/xiyNZ4tQS08n45YG6zOlqFLhEsG6K769PRayp6frloeWorkQyvksMMOi65ihvi0bOy98Jq6FmLOc7ZYtYpwO5gXrRrOZ2437LPPPrGlu0n3GpgVwcwA0ErU0gfyZO9gjz32iC3Wp3NxXc96MmSrS6uIfNOlh7ZHA/QUqFPgrUc+7QXWA3F6HV10IJ/0QoA62GabbSKMJSteg6vP3oo9FCwqBrCANgzcd7rW4L0ArEJgHe/VVlstwljAuEOAegZ6icygAtbgNi7yD/wFl1566Qj7P1h33XWHvY7cS7UcrN9P2wTq0d6I4IrjfwXMLHEAkLLAXnvtFe5OsD7Jt5Ym+dR6xIUH9B5wXQFWPb1r4A1eYOVS65bZH7ztC/aMGQT1/2nZKZth8qGlbG+AD6XjHgI/Og22JVAXWQ7y4P+Qno51KrQ580k8OS/A/8T2wNrp9ojz/RLTpk3rYeA/43/evNOT8H+DvqB3DSxlAugA7yH307JkPTseZZkXRVH0gCn7zHkSZX+TT0r9xzyVWUxLfBJqlbH1ScgTb+edd46wW/3MkwG/J1ORxKebeWOrf400tdhNC78j059Ai5GFjAxjleln1Bqm+rTWuJ5lSEGriHmtWlD48hyQ1SoC69GnMG9P+kQH0zTvWHb63vGlmr7lwAqwHPr2iNueEuuieNvpWQDl8X5QXtPKlijLDAPLz04W7oVxCvcj+wn10b7vfe+LLW1JvysWGlPiQAuJemNgDbSwyRv1J5QVsDQBXyq+YaBnaLvce++9Y8uXa7hnYH1SB1pN2VKybujF2B4Y5NdKZ5lYYIqk1zEV1l6P9xXYD0zXA+LzfpG2/xssbsDCNn4sSevEfNAr0UfMZADzSk8R8O9q5ZsfrFkGAIGegWl5D7g/DHwCPW3eSAXHWlhbxftBb8S6ZWwC6MHYY+2yPMlj7oUAvQL99PRu7CWYJtcYh/8tegysXQPcC9ud29zmMtYx7coy8z9kLXZwvIH0jMv7Rs/KHgDTHD/0oQ9FmMFiYLolPSSg1+39UDfl/wZ1k+tloswXZU4URuPNoKGaIRqax210NFAbHozV3Z4oVIKVk+PuKmJuNG3eMih8K3q8ayiz51g35Mdz2Ze7Ui1ZYdiw2psMHKfLCbgF7LbzWjfgqlJRmA/yZfz5D+Dx/HBla1rmg/vSVY8ThXry3lhnpGE9kF9dS6z+BxgEHidtBwH9I/PQ0i2Q3Xy5LVlmB7Epu+4DFI+DhLqlWKyKjxODfzjqI4fFfdRRvk9i2iiP3AasU+vBewD5Hnsex9u651q7/8zGUano+sGFpGIlnpwGcL4uP5U2LqJcd4YtG/co51m3HUsLAHnPD0Ddh+aJ47mNQW4XlNF2qx4wPWAg1wkIum2J0/w5+Ev7sb7IR3tv2Ge8hPO9AfaZP/Lm4DWuIyBNzgHrjpU/zTOGmg8DB2oZWPbekh/Lmes259P4c3sbj4mfWRRFUcxYJm2Ze3p+YvLEaZ/8HM/nGnbLE8cnMk8luz7tU3SqYI2YlnkjH9na8ennUxJryHJ5bbaqOGaefcpiiWRr2ziFcho/12sRmw/iN033gXmmZ6C1I+TB+iIfxqnbiHwYp/nld37Kd90P887Wc3M9aKG0g90TgXjMi3FbBmAgl8+RAa4KwOWQz2ndYtS7lrvHrAtoywyWB6wjcLAclwODqOC5OZ5c98J98zj3wzx5PzlmWmxbq4s4DduW8j3P/4/cvnJbMv6cN9so51n3ud2aP9sa91dLk3S8xnRy2bvSNG7gmpxX4LdpmTbXmo7HwLg4bjpgnLmc7st1bPzcQ+vWa9jnuTlsPtjnubkMxomO8prcJm0vbsG0x4Pyet1UdeCU3SwWHHLF2hjJkFFTIMNWTt6XC5yPT5bc2IjbCp+XODM5fsn1AB5vFQ9ww7KykbZuiCM/IKSrsYENf6xuGr9zY/R4bpR2E7ug66hv1fxOBvKe/6xAHsxfvl+WJ9fVaHXf7qOMppPjF9KxHnL81gdpG+doysX7YNzs83r2Gb/Xt/fdcz2PPOX7DLnb3VUOjruvK5/ssz7Ho80vdKWZH54Z64N6sG1wvfWY42/vbY6TY9ZNTqcrf7nuuv5TmZw/oO6MizK2x8F95Mdzc312XdOVz/w/zrrR642zjSfHMVEeereKoiiKWcmkLXOfnPmpzVPGJ41PydYqaJ/IkONqn1StVTBZKJZxdaVNem1aeZ9543fX01faJ2hX/eQnti6Xsayu9snclWZXOl3WvLeXcuR8SNfxHDaf7DPv41lCXRCf1+W8G+a4Zcn58zjpIzBeOcVroW2fwDWWs6tMXb2r3K6EdHL87T0mDdsQec/xifnouu/sM/7cFoX0Lb/HafPG1ZVn9rXtjjSss4ncY8/N8eR9hoV95jPnp2ufg6/Ulfu7ypnJ6Zkn9nXd+5zPFtLweE7HtKlb48p5zv+PnGdo66hNl56v7svR6mk8/rIkRVEUxaxjvk1N9OnnPp5SXdZnfuKM9XScCjkdwj7V8tOty0rv2pcZK585TWgtKH4bpuxjPbG7rLN8jXXHNpezzRfWn1Zrmx/I907afaP1ZqCrHsaDMlg+88IUQ9/czIzXRrr25XLm68V9kM9t69a4wWOk01UfrQUObbsH4s713+aP/OS0xiLXoddkS7GrbkjPc/Nx8+G2TbvNZ37TmzxbJuPkPM/NaWZy3Uuu87HKb36gK+7x4sn/rxyW0erO+9zVE/SatjzmLx8fr40K99P4xqqPlikr82LukptMbrSGPU7jVcnw57GBeh7LJzg/mtfEbbge72ro85v2D8xvXzDiI9LAa/ldsxZy/oyHfe7P9dA+PItifjNxtV8URVHMWMoyLyYNVqiWrF3H3B3sslg5blPjSzHAwksusbv11ltPiyU+Gtll4iJkvobOK9m8og3ksbXM+Z33/TXLUcxdyjIviqLoAWWZF/NEHhg0rGWKnzhbrA46ubbK2WefPVzYifMcOOwabFxQtANh9CTMv2+isiQxHwEGzh/L/005LHPurRTFgqaUeTFpskLLbpSW7I7pGgDNsyPGU5LTia4jBz15xb1V+uBfp3WruD8fb88pivlNmQ5FURQ9oCzzYtJguWplS9c+LFtdJTSz1vLO86OxfH2z08WepoOxehZCOXxrkzxbjvzXKZdK8demlHkxJVol6O8Wj7MqokowL+jlLBKUevswmA7acnQtKMbW8Hh55LxyqRR/DcqcKIqi6AFlmRdTIlvUkK3RbO36xRW+NnPSSSdF2E+8gdflAdCuBa4WNHmA0/S1wimjnwHjqz6+GdqVP9xNWvmWjfpwX1EsKKqFFUVR9ICyzItJ0zWNkGbUTt9jH9/UhA9/+MPDb0XmxbW0WLFenRKotT8dtM0fa9qBWMtBHv2oMPPi7W34AeFsoRNf6zPv2lcU85tS5sWUyOtNQ1ZWKmXcFH5Ima/C+3Xy/HKQ4fyAsElOhwJsB0BBZa6bhXx5HssO7LvvvhHeYIMNYgtdA6P5r1XKvFjQlJulKIqiB5RlXkyavF66YKm33xDN53VdQ9PTYs3z1Ft3zXSQewOttd6uUe5+eyDsM+8cyz2TopguSpkX80SXmyKTj9vUXHsFBek+FOB0Ku+WvB6MbhZ99+TdffmBlB86Xs/DwLpw2/UgK4r5Tfc/sCiKophVlGVeTBqsaN0jWp/ZzcKXeYCVBm1ebLXS82wVXRLEM9MGCbvcPcxBN59a23nwFvLa6EUxXZRlXhRF0QPKMi/miWy9Xn755RHecMMNY3vttdcOVltttQh3kQcToW2K02Gpt75wypPzBJzTDu7CEUccEVsGOl/3utdFmDKYb98k7bq2KOY3pcyLSYNrpJ2pwQDgqquuGuFFFlkktij33LwM61qB7HLpcmssaLoGcMdyk2SXyoEHHhjbI488cnDnnXdGGMXdXtc+tIpiQVAtrCiKogeUZV5MmmxpZiv2tttui7BfD3ryk58c24nQNag6negS6ZpCqPUO9EjsQbBcLmy66aaDM844I8JPfepTB7/73e8iPJ3rshdFKfNiSozlEtGNgnJWQWf/t02OfZ6b3TZd+xYUY5Uj51PIm/lybjnXeg77pnNtmaKQcrMURVH0gLLMiyC7TnI4W8m6G7rcIPktx3xel3XbF7rqg/qyzrTQ+1j2YuZRlnlRFEUPKMt8juPtx8ocy0fNeVqYDHrqL77mmmtiu/HGG/faCs9YTrf0SvKa5m35y49eTAelzIu/ILtZbB68ru8sFXjDG94Q2xNOOCG2fLBZXOucOdftSzl9xdkwn/zkJwdLLLFEhJ///OfHtsstVRTzm2plRVEUPaAs8+Iv6LLMs+sAK9xPph177LGxffnLXx7bDNf20eVinTjQmac17rLLLoOvfvWrEf7BD34Q27weelEsKMoyL4qi6AFlmc9xuizvbFFnn7d+YQbzrrvuugivvvrqscWa9xqtel7Icd90vAA03eS/juG77rprsNFGG0XYt0LXWGON2BbFgqSUefEX4D5QCTuXGldCflsyzz+Xsd6mnC4m25zzQ2yqtG4UZ/rkGSxT+ZvNj7wVc4dysxRFUfSAssyLAAvcpoBF2E6nY/GoroWjuqzQiVrouel1NcPpsEynkkZXr8QeDPXWHs8uqMlQlnkxGUqZF0OyMlchyRVXXBErAgKrIbaKGgXe7iOO8V5EMs0clunws8+Lwsz5NZ5cZhU8lDIvFjTlZimKougBZZnPcbJ7QJi1kl9PB6zyTTbZJMKf/vSnB7///e8jnN8KFZtUa1l27ddNQ/q/+c1vInz11VfH9tZbbx3cd999Ef7hD384+NnPfhZh11DHArY3YJykYZ748pHz4ddcc83YrrvuukPLmWvaPHX1MPK+bG23rijIfyfDvCW71lprRZh61CVlnNmanwmDyMXspCzzoiiKHlCW+RxHSxPLVKswD2aec845sX3JS14y+MY3vhHhro80Z2s+W5eGiV9L9uc//3lsv/71rw/OPffcCF988cWDu+++O8JO88M379eKlllmmcHjHve4CHs8+/WzZXvzzTdHGKv+lltuibBrx3DNKqusEuH11ltvsNVWW0V47bXXji2WfGsd0xOwTrI1n9O3bF3W+mabbTbsyfh2aIZ74HXGTR7yfSiK8ShlXvwFuUmo7HFzPO1pT4twVtwTVT5nnXXWcFGuiy66KLbEo/sDpYpyhZVWWim2fBja+LuaKfvMn1tebjIMvuik4v3yl78cDxG49NJLB9/61rcivPjii8d2iy22GGy//fYRfs5znhNbymX6umMgLygmuI1alwzpuNzBZZddNnxA+VAibh9GktMpiolQbpaiKIoeUJb5HEfrMbsHuhaGylZwa0WKr/67/chHPjI47rjjIvzjH/94aIXvvvvusd1yyy0Hj33sYyMMrXuD9LJF3OXCaOH8bNU6WGp5cq8CK9pB1dNPPz22xxxzzOCmm26K8LLLLhvbAw44YLic7UILLTSsB9PBhTLWx5ux4C1T7r3ksrV03YOiGItS5nMc3Q+tgnaWiQoWxeI5NJlWSaLADznkkAh/8IMfjC1K6tWvfnWE3/jGNw7X+VZ5ZcXLS0k2xUc84hGxzcdBJeqW4yp4zyMfKk6OteWivF0PI8tJnLfffnuEDz744NieeOKJocThwAMPHOy9994RznnrennK8nBejt9zss/dsPXZlr0oxqPcLEVRFD2gLPM5TrYenXFx0kknxQwM8K3PDJaxFvHRRx8d2ze96U1Di3rPPfeMLfse/ehHRzhbmlr1xJFdKh43TxzP1rjHs2XtuZ7XHtPidZu/eIS1bPqChW3ZjBNXjFb6xz/+8eEA5qc+9anYUlf5GtMyv20aba8m0zWoWhQToSzzoiiKHlCWeRFgTTpNb4MNNhh87GMfi/Buu+0WW6xLrUbmb++6664Rdu450/k+9KEPRVhrHGtV6xS6rGetWJpha8GyL18vNlni0yLuSoe4u6ZLen2+ph18Bfz4gJXsuffff//g9a9/fYS/8IUvxHbrrbcell2rHbIf3XLCaaedFtt11lkntksuuWRs4Re/+EVsF1544dgWxUQpZT7HyR+fcGCPD0985StfibBw3qmnnhrh/fbbb+hS+cxnPhNb52RnUGAqbhVbhpkluho4zxd7skJVMbsFFSvbVpmjOL2ea9xvPnBx6MLID4OszFs3SHbH5DDuKGBw1/j5IAVLBkAe6PQ4aT7lKU+J8I477hjb9773vX/x0OlyARXFWJSbpSiKogeUZd5DsOq0ON2C1i37tESzZWtT+PWvfz1coMrzXvnKVw5OPvnkCL/2ta8dvPvd746wU/aI2+u1QvntPixz3TT2BlhYyzwR9m3N3/72t7H1GBBnHjgV82d+sWZ18zCfXOvangQWsNdzzLBukGwhm/dcNuJvpyH+9Kc/Heyxxx4RPu+882JeOhx00EGxpW7tIcARRxwR28MPPzy23//+94fpO0CbrfmimAilzHuEii13z/PqhirHVrlAqzzuvffe2G6zzTax5ff73//+CO+www7DNLri19dMnCo+ZoSopHWn/OQnPxmulIiv2HPdotyzQm/LhyL2XFdKREGrzB/1qEfFkgDw+Mc/PraLLrroUPFzngo514dpdilTjvkAyDNPzNtHP/rRwZvf/OYIP+95z4st7hgfKjnPXmN+M6XMi8nyZxOnKIqimLWUZd5TWiuW26x7I69VrusCC1WL9Ac/+MHgpS99aYT52jx86UtfGn6JHytWt4BWJhanFrlbLO/bbrstwsyAwR1hGPitZY9rx/yZJ9LJzdMyabFy3H26JyiHVvojH/nIoWXuQlpPetKThrNHeCN1scUWizAWOxCPZbPu2LqPOtKaz3nTssdad1aQKzIutdRS8aUmIE/Ws+Xkflhn5j33FIpiIpRlXhRF0QPKMu8hWHz6aCXvI+x85v333z+2vNl4ww03RBiLUkv28ssvj60WLtBktBy1jPGps5gWGA/rimOdA2uVP/DAAxF2PXPyka3sFvZ5HMtf69g02dozkOxrprwugOWW+du+1Ypl7trmLrvLPHHP1drPfxHi1qK2PsmD57DPHobrquM7d0Ex6rOdQ54X/5JcjqKYCKXMewhd/a7XwbMSYm4zOCvl2muvHWy44YYRRtnxsQhQ8WRlS/y//OUvI+wHJa6//vrBPffcE2HdDCxYZfPCtZJdFYAC063AoKQzYxi4BNLMg51e56wXBk8dTHXLPpUpaesScdCS+Iwfl8cKK6wQYV1IKPXlllsuwk984hNjSxwq1i4FS74sG/FbV1mpP/e5z40wbh5cVmDdkrczzzwzwi9+8YtjWxSTpdwsRVEUPaAs8x6h5ZpdEm6xxg1jXb7whS+MsF8P4gs8ui+uuuqqofWqNc81TsXDXXLHHXdEmLdFgc+hOVjKK+/AoKYDe+TJud5a4LhynDJIb+AJT3hChLVYs5VLM9W61uL91a9+NUzLHgJfRNLdQz4tk82cchgPOE2RQUpgDfNnP/vZEfZTcuQzTx+0Z2B5qFctdtLR9aMbBr7zne/Elq8pPf3pT4+wX1ziej+J5xu1u+yyS2yLYqKUMu8R+VaqBFXgKDCPE1YhqrDyzBPcHyonHxBs9XXjJsAtA25Rovrh8wNAvzMuDdczV5nh0nBmCQ8Vlbg+a/Kelbl5UlnyoGjdPXxYQl/1d7/73cGPfvSjCDufHYyH+FW4Kmvy4Jf0XaKAb54uv/zyEaZuzFPrO4es2IV91uOdd945/EiHH7xAgb/qVa+KsLNeXFO9KCZKuVmKoih6QFnmPcXbqmWONal7gX2u/MdXdIABTL6A36L1ieWr9XvKKacMXSrOXMFq12LVcsZN4gAnA43OHNHyxTLXzYFF7GCnW8rgACZo8ZonymE5/fwbeTRPV1999TCMRQy4SKwHrWWwB0Ea1oMWNBb6JptsEmHmpZu/3GvJebYeuiDv5As22mij2DIIvc8++0TYnoSfrCuKiVKWeVEURQ8oy7znaD1ym7VIWU+b9VXgrLPOiu0WW2wxtC45z4FLFoECBvC0KC+55JLh/HGnBIKWs02KQVStXL7Gs/HGG0fYfdnKJU3z10VupmM1WQZdXVfme9/73uCcc86JsPPlGRy1t0I8bVz0BPSB6+NfY401hm/EsgY5/n/wPOLIvn3DpgPZT2/4E5/4RGxZuOyyyy6LMGvJi9dTR95H487WP4O81mMxdyll3iP886MschhYn5wV/eCTn/xkrIII73vf+2Kb56VzLTNFwNkqF1xwwVCZoyRdNKt9aQdMkxdwnL+93XbbDT/G4As0XXPhR6OrmXbtI+8+YJjbTr7BD0nceOONwwcV12dXC/BAMf8OyDI46/xvHkquR+6MH+LwQdSGxXBWug5C77TTTsN5/Q58WkdAPrNih/ZdAuPSXVTMPcrNUhRF0QPKMu8h2Tp0nvX6668//MQbFvKVV14ZYc/T8gMsWy3ySy+9NLZYuA4ysvX83N23KTno+YxnPGM4yPeiF70ofoOvrpN2jse4tGK1kKVtqqM1XcvMIl6W89xzz40t8+l1w5C2aRlXLo9uFAZpfYPzJS95yWDllVeOsPPiKUe2xg3n/OVwWz6sbJcTcAokvSjvAb2bsSxv4s75LuYmZZkXRVH0gFLmPQTLEJ82wluQCC8EYREiRx111J/O/DNYs/i/EV7+ufXWW0N4CQdhKiIWOzKaRayFikWLMFDI254ILwK5P4N1inCd1rn7xsPzs1VK3ryeHgLrqyD4vREWDGOQE8Ey53wtW8V9TCNEeDGJZYERXo6iZ4JgLWsxi9fmOMG6B/zeCOkj5PPII48MoSeEvPOd74yBV4S3a9u6y2MVvplbzG1KmfcIlQOKmVfNEQb7EJTL2972thDcHSpeQfkxEwRhTrZKnDCC0lK5dUH8KqysuFSsKM+s3MZCZdgy1vUeMz3T9GHC6/IIDxiPd9GVLnXKsgEIs3uYEYOgRBHLCuShzT9hFXhWwp5H/JtuumkIA63I0UcfPVh11VVDPvCBDwzLxzx5hLIJrhfvfTF3KWVeFEXRA2oAtIdwS7HiYMcdd4wtg59Oe2Ng0EFK1yzB0sONAKy94sebWd8EsEC1ZrMF6FS5bI0bN29Q+h1M1iFZeumlI2ze6BnY/LQ8wX255zAaXc3XeMCvGzkQetxxxw2uueaaCONOMs85LfcZD+V27ZZ111035uSDZWOxMAd1yY/Xd9UX+xyg9TzcJ7prTBN30Oabbx7hQw89dLiGjfnEwtc6z/e7mLuUZd4jUA4K85YRXgpCXLccULaeh9sBQRmg3BDcKvqFc/fdcJfiyPuMGwWlmwflk69HUExZ2v0TwWsU0s3oa0YZI8wNR/EiOU0UYn6ItOlbDsYfmA2D6JbKrpMuiN84Odc0zRvpouSzvOc974lVFV1Zsc0T5wiuL10+xdyllHlRFEUPKGXeI7QuDzrooMErXvGKkGc+85khO++8c3TvEc7R0tOi441PZm0gWJ/OhsloNWYL0Ti13jNY5lqvuHYcQNVyB/PM9Xn/VMkWK/HiikDsgTAorEWc0zIf7GutdfKGRY0w+Gg9USaE/TnvXt8Fbinr0Z4KeD889qY3vSnmsSOHHHLI8FzvF+eaJmHeBp3MG7VF/yhlXhRF0QNKmc8CsgUHWoDgYBowBxo5+OCDh9PnDjvssBDQ+sNq1KJ2yhzxY50j+Mo9rnUK2foU48x4Hpa5Fj7WpPu7LFd+d8U1FcwzcRo2bcqa8+FxLWKwvq0b8DyW+lWcrsh1Hs/lsA4Jsx+BnL77DOd4DjjggJATTjhhOM/dXgHXGz89D6/rkmJuUMp8luIfVUWMOCccFwLrbyN8pgzhXJUIovLSDUFYJZSViqKyQUhLPA4edx/KXFdE+2CQHG/X8fmFZbPcinSl3bWPuvPlKV1IPKhUrBwX04SuuMaCc3fdddcQZrbsvffeISxehjjzSLyvxdyllHlRFEUPKGU+w8FC08LTutPaEy1zlmZFsBBZVhXRYuQ63QZYwV6jsM8pe0xd1GIXrtf641wtW61qz8kCpmkaWSD/ztfNb6xD8mw4Y9rmK8N+y85gp70NByPZJ13Xj4blzpgP84Kw3rmv+bs8AUsXO5ALbU+jmHuUMp+h+IcG/9RK3sc5/qk/97nPhaCEVeYeQ3k5IwPlLiopFIEzPnj93dkRWfGpMEjT63I+Pa4C56HAmuAIeXK/eN10YH1RFsPkX3I5pGsf9Yf7KAvxWE/EK13pgPu7MM2c7h577DF8uO62224hvOKfz/WhXMxdSpkXRVH0gFLms5BstWGNaZ3xcWZk9913H+7TggbDWHhaklrLLNakFb344ovHoBuiZa812VqV/iYu01Sw0okX4e3LNq6W0fbPC8ZpOXPZx8NyZOjV6GbxrVCtcySfb9qTKVO+RuGtVZZDQFiPHWG+vMfJk72iYu5SyrwoiqIHlDKfoWTLTKsvi3CcL9IgLM+K7LPPPkMfa7ZC3ZcxDSxm3zhkidwVV1wxxH1Y1w6mYuFqteY8af3y/UqE9cMdlF100UX/In3SNR7EvMxPLL95o5zmg/1jpWm+MvSErAfHIPL9aM+HXLautPK+fJ7pkNftt98+5Gtf+1oIa8Pk4115LeYWtWriLMCBLf/0bL1tKKS99torwny0Ga699trYAn920L0BKB8VvKCUTIe56ldccUWE+TAC8HV+VyAkTlwLYNee+P0I8SqrrBJbvjTPyomAQnflQdPh2qwIzZNlM7+TxTiJz3w6L/vUU08dfrH/lltuGdaP1+S6lZwPZvvwkIJtt902tny531UNu9wdbX2PFX8X3BvPYSYLvP3tb49ZLkB6bd1lplqPxeziof/ooiiKYlZSlvksIFuagrUGdLGf+tSnRpiPDQOv83surgUgDi00tm2cWLBY18Aa565jrpWPZf6Tn/wkwrz16BeHvIYtX/KBtdZaK7ZY5Vjk4PRE0Bomb+YDzEu23KdCLpuWOb0NOOWUU2JJYLj55puHlqzXUDdjWc64m5ZaaqkIZ8vcfeTZOhfiy3GMFX/GPHGvSRd22GGH2DK/3R4GYXoMozFa/EW/KGU+Q8nKOisat/yBgfXHn/SkJ0X4e9/7Xmz5WALzxTMoyKwcs8IT96FsXTFRBf6jH/0o1iMB0mxdP8yuwLcOvG4OKHf2AwrOtLqUS6vwJCv2/BAYDc7xOHXoQ+eOO+6ILR/dUAnysQ7L7N+APOSwuI+597pUUOKw3XbbDZZYYokIM7e+6/rx8Brht/VF2LjOOOOM2JI2M2kgK/I2HphMPorZy5//yUVRFMWspSzzGQ63p7XM2aeVfcwxxwwOPPDACGM9Q7Zcs+XZ5bbwOBh/tuR0U2AFMrcaON7miR6E62lrKZKPrji7yM3Qc7HKDecehOS6sWxY5lrzuINYBRJwqcC5554b87SB+sr1A6SXw+K+BWWZi9ey9XrWULduvQePecxjBpdffnmEcWt5bleaU8lHMfsoy7woiqIHlGU+Q8kWmlZp9hnr037DG94w9Gt/8YtfjC1kX3NLtvrGw3xgwRpnV5Mhj6Zl3JznuTk9w20e2nhJ0zgJWw/ZmnZswX1YrtYH67Lfc889Eb7xxhtjy4ettdJZxtY6zfnsyrP7uixzto4TjGaZd+0bC87vOtdy8vUo5p0DPTPvTVcPZqJpFrObUuazALrZoPsi/9GZMbLllltGWHcLx/1TZ2Xurc5KcqLkZtKlHMY7npXxVPBzc6ACZtaNg7IqcGatOBDMPl1PfLQDOB8lLubV/PM7h8V9KHNnruBegcko80xXPY2GbUAX2rve9a7BlVdeGeHLLrtseD/nNZ1i9jL1f1dRFEUxYyjLfIaTp9ply9T53Vi7DoTxRSHosgjzbc4WsnFyzUQtuPGs7K40ob2G457TlWdcKLoPCPsGqq6Vu+66a3D33XdH+Lbbbostr7k7DZHBT91Rbonb6YqELX/Ox1h5mp+WuYxW7/kaeyPO1T/uuOMG++67b4TpbRhHVzqjxV/0i7LMi6IoekBZ5jOU1k8OWqRYZ1rjG2644XD6nWufZEazvN3fZWHTJGwWuXlk68/wWBZ6hrx7bo4n7zNPWqFMLXzggQcijH+cxcSADxoDvnE+Wg1Y5IAF7ss0+JGxlEGLlnplYBQ4L+cF+J3D4r5smeepieNZ5uKxlq5zu7COrrrqqsGmm24aYcrDMrmjMdG4i9lNKfMZTnazqMzBmSsveMELhgoiz2gY7w+swjTuqWLaKJn84ADyobLmmPtzk/MalGx+wxTuu+++wa233hphXCwuLeBxFL2K23LwxqkLfrFlbXbwdXhcMM5s4QFgXtySxxwW982rMgePZ0Y7F5jrb/6FevNBT1vYaKONItwVz1hxF/1hYmZVURRFMaMpy3yGkueJt4tawTve8Y7YskQtH/qFsSwwLLlsMWoxT5TcTAib1kStPtLXCrdXQLm0rHGXaIU7jZC1U2666aYI4z5x+qEuk4c//OFD69Q3MNkuu+yyEWaNGgSsQ+rqwgsvjDDpmadcNzks7puIZW6c49VxrlOZaH2CrpWPf/zjg1122SXC8xpnMXspZT5D6VII+Va95S1vie3VV189nG88FYyz/cN37c95avPHw6edu04cKlFcRL6KrpsEl4dzvlHaulH0k6PgdS2xsJhreavAWVecD2iACpxVGl29ETeLit8HxJlnnjk47bTTIswMGMvpNpetS5mjrH1pyNksO+6443CRMR4w0lWH8wvy+JznPCfCm222Wcw7L+Y25WYpiqLoAWWZz1CyVadbQgsPCxhrDFZfffXBIYccEuGpMNpr4GNZk1jbOS/APgchzS+4UBczT5xx4trivFbv3HFcKr56r2WMBa4rga1fMNKlsfzyyw/XctdqZ6DQZXe53vI59zxb5rhZPG59z1TLvI2LPPrmL/Vw2GGHRbi9j8Xcoe58URRFDyjLfIaTpyYK1qT+0q222mpwwAEHRHheydafYa1UfrtPP3QG37ZWo35wfN9a3ljBDnDy0WnAj+0cebampWW90EILDZZZZpkIYw2vscYaEfYbnFjofoTDbeu3t2fgN0DPPvvsh/jMPW7ZZpJlnq83nNl1111jS3s4/vjjIzyvU02L2Usp8xkOf9RWQbEPJQ64Ht73vvdFeF6gGUxG6ajw3KLAVcwudIXy1r2B4tSN4gAnM1Qc4MQl4heTnBu+8sorhwAKVJcKa3kDM0tsvj5gUMbuo56Mn1f/gU/GnX766REmfw7Qes1MV+Y5Ll/n5xN/n//85yPctpVi7lBulqIoih5QlvksAAsTtBixQnWzbL755sOlb+eVrqaQLcJsFWrR8so94DpxnfBvfvObsWVQ07nhLEXrEgWWA5eAFjWuk3XXXTfCyy233HDrlEM+CJ2tXmktVusKSMffTk3kG5qnnnpqhOlBaLkbz2yyzA866KDYXnLJJcPlHWoAdO5Sd36Gw5+YrjOC4kPYhy8d8bd/9nnBeFCAKDTEfaTFXG+E1+5vueWWED7BhvCRZPzRCC/lIMyB9zy/6O9MGGSxxRYbulKYnYPrCPmXf/mXkGc84xkxZxxhlop5yhiXoMwU6w3xvHw9+2cLbTnBslEmy1zMXeruF0VR9IBS5jOcPGdbmIHBjA/E1+GnipY3aN3h/tDqU3BHsFoh8u1vfzu69ggfSEYuvvjiWMAKYYEshLxh5evqYK44wluayLOe9ayYK43gLtJKZyAUWXTRRR/SG2klW9k5nXzOWLSW7myCsts7qxksBZQyL4qi6AGlzGc42SrFOkaYxqcPFUu6y586L5AWlh/C9EGEAUQtb5Zcveiii0JY6Athmh9zypHsG8fXjTAwyCAnsv7664c8//nPD4scWWmllQaLLLJICOVD9AcjxGUvoau87htrv8eMU0t+pmKeu3oYuT1QJ0VRynwW4J9alwOKaDx8AEyUfC5KDhcJwmAnwmwVZkwgfOGehbEQXS8oFdw/iO4a4mSlRwSXCTNTENwryAorrDB0ufBhDc+1vIgKvMuVQBqS0zSMZMWNcDzHz+9cdvDYTCHnU9cKZTPssbYcxdyilHlRFEUPKGU+i9C6xFLjjUvE+d4tE7UuPS+fi5XNvHDkiiuuCDnvvPMGF1xwQQjzyVmeFuFzbggWomBFI7xiz9ucCJ8422KLLUKYI4/wqj4WOZJdBX9tK3Os9KczX04FBa1w6xauueaakHXWWWfC97voL6XMZzhZSepyQKHwQg3imiMtKiRlPEiHl3oQ3Ca4VRBcKsj1118/VPC+KAQqly5ljDJn/RQEnzhrjyOscIjgS+96mJRi+iMsV4DwcNXFJqwN7z7OKYpS5kVRFD2glPkMJ1uoDuaxj8FDxIWspopWNO4bFspCmJmiRc6ccoRFsrTc8wCsA41Y5oadjcLCWKx0iPA2pxa51jwuIssEOVz8+d7kNuAMFmYHsRwBwtx9zy3mLqXMi6IoekAp8xmKFlj2RbsPS01/KdMGRetsMhaaA2sIi2Ih11133dAy13fOsrVa5jl+55Rj2WuZsw45wjTE1VZbLeTpT3/6cB65lrkWvVZ98VC8L9RVHvzWUr/77rtDGI8oivoHzVBUeKCC9gUccM62r82P9lp//vNnjFPXBu4Vu+24VVTiDHYixGGe8kBcjscHjItjLb300kPXSh6kM838oOJ38VCsz6zEfWCyPrz7aAeGi7lLKfOiKIoeUMp8hqKlRTe7BUvt2c9+dghuDwcpM2NZatki16rnI8u6Vm644YbB/fffH+JbnZxrt78rT8TJWt8IFjnCoCfrfCMM2GlVdrlWuF7M21zHXk92YVn/3/rWt4b3mEXJqs6KUuZFURQ9oJT5DEVLS785uA9rzDcneTGHAUtESw0ZC+LQ6tMCxwfLtyQR3ux0wE0reiLo09ca94PLSFc5ENFSRyZShrmA9cB6Nd4v16/hK06ucQPWXTF3qbs/Q8kKzbCzWXJ3m9fkVebCOZKVpgoBcRaKM1iYFeGqh7hVVOZiXoDrW3CjOL/ctdZR0Crz/EBQ8YymfHLZp4JlJA7L7+Ctx5BcT2NBPnOefMAZN9JVnnktR74HxmV6LHi26qqrhoBlKuYupcyLoih6QCnzGUqXVedUNdDSXGuttYaLYQn7W4sRK944Oa5Ffu+994bwhqeWuXPJEeMBLdLWUgXO1QWgZU5e7U1MF+YLIU9at13lcJrnZLFuxLTa/fOK+TTfYBpf+9rX4t4j/LbMxdyllPkMJStBFZF/ZJSTYT58zGJbiC+R5D+152UXg7NTEH3m+Mldm5z9PgS8BpEcFtJUmTurZarKcl7QLQGWEbEMHM8vOk0F41KBIu5DFgTkFXGlRO7hhhtuGMKDuihKmRdFUfSAUuYzFLvYoJXsvmz9MQC28MILh3zlK18JyRanA6WgRYql6v5f/OIXIayNbm+gy40C2co1T8K5HlfGY0FYszlP1JX5tO4Id5VtLEbLp/HkuEY7dyoYT87zGWecEcIcfj98PdUeRtEvSpkXRVH0gFLmMxQtSi3hbOnh/84WIdMTkdNOOy0k46Ap8RgnvmwHPllAC+GjzfplScuwkFabjwzxa/n71ihWfr7GcN43v7FOgDQsh4uEkT/Tz+dK177RsAeCcJ0yv8jxee/4mDay2WabxX7I4yHF3KWU+QwHReSfOitY3STIy172spAvfOELIbhM/PPnP7muBpSsX93nizWIg63SKodWSeW8AOe6z8+doTjNBwqvK05lfkH6WcGK5WTpAt1JyFTStxz5Hghllba8U4UHIy91Iaw1j+ywww5/OvqXD/diblLKvCiKogeUMp/hOK8ctHJBSwyrbPPNNw/xFf+zzjorzgEtR67TUsRC9fuSxoMlK1Ox8Lje5XKd7vizn/1suJBXl2W+IKDnkbH8DvQiuoHaMk+k3OTfHojxZNdNZl7LS/4QynTMMceE8PUmZM011/zTWX9MpyhKmc9QuhSBSgR0mYB+8a233jrkqKOOGl7veVmZ8tuwSox4VXwToVV+XK+y/OEPfxjCnHc+noGYXpYFhfWEq8cXoVgVEuGD1D5gppoH48/umgVRJuuYB/aJJ54YokvN9BDyUhSlzIuiKHpAKfMZSmv5AhYaMhpvfetbQ1jb3BUQjQfLXIuS2SxalJmx4scCzL0B8RriN+xMGaxzrXUtYSS7i4T9MloPQbeDUJZ2H9c5c4X9t9xyS4hvyfJlJgd/u+gqJ/G4z/QQZ++Qj1zPhpUM57fksltHuWznn3/+cNbRbrvtFkI8xp+vL+YupcyLoih6wN+MPNXrsd4TsOKAxZf4gDKcfPLJsQWPs/4KVjuccMIJsWWhLixX0CIcDaxqj7eWJzz+8Y+P7frrrx9fQ4KNNtooBu6ARbggX0sz7IorY0/CQWEtYjA/WOQMvgLrzVxwwQURvvLKK2PLV5TwpQO9COLItHlya08C63zxxReP8CabbBJbfNguRctSwFr1xk2cxss27wfiJt/AEsItz3ve84bpf/7zn48t5PxJ2+Mp5g6lzHuECo1ZD3vuuWeE+YgBoGBVMrgY+OwYnHnmmbFlGQA+4Ay4KiaqzCXvUyHxQFl++eUjvMUWWwzWWWedCPMKOjhwCzRDlZwKCWVn82Sfxy0HuI+59YBr5+abb47wd77zncHVV18dYT5UDcy2UZl3lQNUsqbN1jyR9mMf+9gI84CCnXfeebD22mtHmNlEnmvc/gbi8qGUlbplsj64BxdddFGEt9xyy+HDyDrkeJfiL+Yu9RgviqLoAWWZ9xDmPi+55JIRZqoiHHbYYfHFH8AivPbaayPsnHS+XKPrxXnhLa37IMOx1hJl8a/FFlsswhtssMHQ5bLKKqvElt6CeeJ6LWLjyU0TlwjlyuCawGUEWOSAq4glYgGXyl133RXhPPDo4Cf7zGtOq8sydx/5fNSjHhVhP9n20pe+NMoHlIm8gteAA7rOcwd6CcCAtL0VryGOrbbaKsLkl/sDWvV5eWF6GrwzUMxtSpn3iOyG+MxnPhPhl7/85bHFhcIX84E/P/5kYKYEXHLJJUMlyKwJyS6DrOSyooKuZuT65vDEJz5x6HLBpw8rrrjiYJFFFokwin+hhRaKcH5Y5LCulN/85jex5eMaKnFdKzfddFPMJQfypOIlfUAxepwZN7lMo5GPUR/+Jv/AmvK8tAXLLbfcME3rDgVs3nm4ODbhvqWWWipWQYQlllgitoxhuP4KLrD11lsvwj5QuR9tvqC9L8Xc4Y8toCiKopjVlGXeQ3AfaBFj9cFKK600OOeccyJMl9/uupY5g22XXnpphHVNgPFwfpcl6L6uZoSV6H7cKQwOgjNtsGIXXXTRCGM562rIbhYtc9K3x4CrAsinljlvdwJLFejGwOo3La1orHncL8CCVbpfcppj9To45iClLiTqli/+ALNaHCDVisadYt7pOdx4440RdgATF43Xey2WOL0VuOyyy4b5s97pnTBzBtiXe2XF3KQs86Ioih5QlnmP0HrDetS6vPDCC2P7whe+cBhmGp2DgE5dxPrz+PXXXz/0SzuYhzU/0aZi2mzNExajVqMWJVa5/mWsaK1SwWo2TdJ3sBPrG1hzhcFa0Brn26Na+Msuu+xg3XXXjTC9AKC89lD4KLJxTdQyB487CIkFbfwMPOv7t+6wzO1N0INgrRp4ylOeEtttt9128JznPCfC9pT233//4XRKxjpy/iBb4OzL9VzMTUqZ9xC63Cocu+XbbLPN4Lrrroswg6HuZ2VD+PrXvx4fPQAG3HS1OAuDZqKiQHG0zSYrwNGalNfrEuAaXQ24cwzn680naaq4Pc5sFpQ36MJZZpllhgOsuD9cXfAxj3lMbHGxHHfccRFGmTsQbJ6I27KMVo62bvlt+jyodMNYHgacf/WrX0WYOvBh5oD0q171quELVbwgBAxcH3rooREmfvNimuQ3100p8eKPraEoiqKY1ZRl3nMc4MM6fPKTnxxhFmo64ogjIuzbkHfcccdwLjNvhbJYF+iOsRsPWIr+1jqEdl++hn2txctx92XL0t4Alq2vuWvtglY07gxdGquttlpscSH5aj0uD6ckeg0uJF/xP/fccx8ycAr575B7Em2vosUyUx7P0c1Cr8MB58c97nFDK9wexC677DI44IADIuxcf+rfweGimAilzHsIikNFIigZfcX4z88+++wI434BVhPU5YCSc2YLa5IDc7JtKiguFbVKjmPuU0GDSg4FZ1hGU/bCcdMkHX3U2U3h3HV948985jOHc7WZQeO5poXyZnwAqANnllB+IJ/moyvvxOPxXMfGP5qyR4kDeXbmisr8qquuGhx++OER/tKXvhRbZrjkB1xRjMdD/11FURTFrKQs8x6hdYgV6W3VisSdoiW5xx57DBfYciEqZn44F5q3KbEWwVX6sGidTYIbRAs0W4+jWaVAPlrLu2167W/O9zV1LGxXK9RdxLIADnC6RACuCQdFia+tB9xGupDOO++8GAQF3C+Qlwzocq3kPHo89yAgz80HBmWd789CWS6WpQuLAdC99torwu94xztiS3xtT6YoxqJaS1EURQ8oy7yHcEu1RLO1rtXJYN9zn/vcCDvdDwtdnzT+47xYFbBkLm9MAha817XWNrRpjwbnad12WaHkxwFMfM5MNQR6EYC/HKsXfBsTq9i4sKht3u7jt4OeTMF0aVnHCOh9dL0Vajzk1/K5L1vm5Nk3N61PfOPmmTXenU/vQlr40fWVe01RTJZS5j0i30oVUXaD2O1nZohuhU033TS2zG/2QxUoe17IAReFwu3iYlZsPe7LRcw6MU3dOdk9gTLNyhFQiipZlJgrKPrxCtwpvozDCzYrr7xyhHWzoMCd3205STvH34XuIubbu6677iSWB+CVf3BVw/zCFOm05aA+zTsvQfmAcR45LiAX0nrCE54QA9Bg3THH35kr3qNS6sVkKTdLURRFDyjLvEdoMWYrWOsUi0/rla0W4Fe/+tXYsozri1/84gifeOKJQ4s5rxfOl3uA6Xy6Ku65557YYs06oKdF7nxxIE3jNB9YtFqguCacf61rZYUVVhhauawT7v781qhxZbos87zP/JFf33R1jj0ff77tttsi7HRFLGjrk61z3u0V8NtP5T3taU8bulGc+860Sa/pGnxmXrwusLLIi6lSlnlRFEUPKMu8h2A9agV3fSg4H/f2s14JU+SAb1oeffTREfY8pjY6MIj16stEWq9sXefFtylJW+sYa1gr2qmDrJfiYGF+M9IpiBx3YJMpilqtWtbkzfybT8j7tKglnwe+AZt7Go4T6DvnIxLGw/n2auwpkC9fVGJQ1heV7FVwjVMPeVHJaZ/60cmv9WQ6bNsXv4piLEqZ9xRva3azZOWQXRDiAlQo9R133DHCn/3sZ2OLS8KBSZSbC0epDNnnyoC6W1DmKk9cIiph52Hn1/GJ2/hV9pyXH0LSli2TFSOoHLMSNx/gfhU05dG15IwdtsaJy8W575aDfDsACtn9Aq95zWuGX366+OKLh2+Amjfi6cpnUUyGajlFURQ9oCzzImCwUjfIscceG9YkbLfddrFlUFQ4V6tUl0qevqdlTnxanPQKsiWat4AVqyXrwCnXaxGz7bLEp0Ju8ubJuLHa3Wd9cL55Iuy5WvNY5fZQ6FXYa2FOObDmDdMPAdeMbhjz0VWunE5RTIRS5nMclVTrn2WxLdh1111jy3xv52LzIQl98fqxUTzu01WAMtRVgaLOih047rnZvaBiRNmr0NjOL+WWm7xxOpuEPJk/3TGcY/64ViVu3ekWAtaMZxVE8MPRzJRhZg74wIKu+ItiqlQLKoqi6AFlmRdDtBR1L4Cv9bNUrm6R448/fjiIJ1jlDlZ2xTManss2u11ASx4WtGXe1UMxb2BZyFNrRbPPNdIZOHYWiz0ZZup4PWmbflnjxfykWlNRFEUPKMu8CPAZ6/9mUDP7gYHpejvttFOE+VboPvvsE2GXbGVOuJa0Fie/8z4tXY+3lnvbFPmdrfEFYZm3vYicRtdALOXRZ+5AL1M5/dgHc/SPOuqoCOsfp16Ni20eZ5A2H0UxWUqZF0NUKGxbl0eGT869//3vj7CK7eSTTx4u2tVFq5iBdNyXXQ7mI+9rr50XcpM3XveZNmSXS77GBcn23HPP2HLeMcccE2G/3JThZSsVO/HkcgF1ONoDrigmykNbVVEURTErKct8jpNvf7Z+dY94HOtSqxEr07XN3/rWt8YW18saa6wR4VNOOSW2LD6lSyFbvMaZ3RfgOQvaOs1ltpy6Qchvdg3JhRdeGNuDDz54uAa60zYPOeSQ4UJbuKss01i9GzAfbFtrnTy0+4piLEqZF0FW1mxdh6VLIeEW0AWhm4X1RnbfffcI+2FoZna84hWviDAfaDCurMRME+Xl/ulU5qICzvXwjW98I7b77rvv8KUfVpf0S/p+RLqtI+P34URd5QdVm35+oAnnL+h6KPpFPfqLoih6QFnmc5wu10ZuElqNnGe3n31a5A7s4abQWmceOhx22GGDm266KcKrr776XywRwIJUppWtU10eeQByftJVPld/xEV0+OGHR9i12rfYYovh7J2NN954mL/8Nqf1QR1Zl9ld01XOfNyw55VVXkyWssyLoih6QFnmxTyhbz1bqVqfWLD6mj/96U8PB0ZdB2Xbbbcdftdzyy23HIa9nqaZLdku61ZyM87XazHr18YCvvbaayOMn//888+P8GWXXRZb5suTF3j7298eWz7GbK+E+HJZi2KmUMq8mBI2G90DuAV02bgPpeeLNaz5ff/990fYV9/Z+qEG1kPnY8iw4oorxnajjTYafpyCV+RVyCpWZs/4chNf2gdmo7geOQtd+Qm4b37zm7HF7ePiX6xLzgMFnCOPCyi7P4Df5fYoZjrlZimKougBZZkXU8JmozWeByvbwVHIC3EJcXguH4vWunbp2G9/+9uD22+/PcIPPPBAbMFrcKeYru4erGmtaKx6lu4Fl6DlU21rrrnmMOxgpq4Z8tg1AGt5OVZulmImUsq8mDQ0GZVf65JocY1zlKS+ckFZqnhRkoZtkmzzPtP04w833HDD8GGy9tprx5Z0ss+8zd9o7pLxytE166coZhLlZimKougBZZkXkwYrtbVQ2adFnLc2L7at1du1OmMmW9aE23nnpNnlEumyno2Ha7KVrsVtPjnmca+hHIbLMi9mKmWZF0VR9ICyzItJg5U6mm8ZcpPSSseCbi3rdlBUK1mwgrW8uyzmnAev5RqPuwUtavPTkq9p8wnGT5qjxVEUf01KmRdTQuWmYutS7lk5Z8XcpVg51/3CDJWuhb5y2sbhluac4x0L8qMSz+mYT/8a5MvyTSb+ophORjeviqIoillDWebFlLDZaKVi4Woxd83D7rJoJ2Llmg7bLutfcn7aHkGGfJpmTtvroc1T7jVMJM9F8degLPOiKIoeUJZ5URRFDyjLvCiKogeUMi+KougBpcyLoih6QCnzoiiKHlDKvCiKogeUMi+KougBpcyLoih6QCnzoiiKHlDKvCiKogeUMi+KougBpcyLoih6QCnzoiiKHlDKvCiKogeUMi+KougBpcyLoih6QCnzoiiKHlDKvCiKogeUMi+KougBpcyLoih6QCnzoiiKHlDKvCiKogeUMi+KougBpcyLoih6QCnzoiiKHlDKvCiKogeUMi+KougBpcyLoih6QCnzoiiKHlDKvCiKogeUMi+KougBpcyLoih6QCnzoiiKHlDKvCiKogeUMi+KougBpcyLoih6QCnzoiiKHlDKvCiKogeUMi+Kopj1DAb/HwW+8QsOoJdTAAAAAElFTkSuQmCC;" vertex="1" parent="1">
          <mxGeometry x="30" y="240" width="395.01" height="329" as="geometry" />
        </mxCell>
        <mxCell id="BEOgguU4NRtYo971RN-K-3" value="" style="shape=image;verticalLabelPosition=bottom;labelBackgroundColor=default;verticalAlign=top;aspect=fixed;imageAspect=0;image=data:image/png,iVBORw0KGgoAAAANSUhEUgAAAXQAAAGGCAYAAABrOXpBAAAAAXNSR0IArs4c6QAAAARnQU1BAACxjwv8YQUAAAAJcEhZcwAADsMAAA7DAcdvqGQAAIhuSURBVHhe7Z0HgCRHdf6rpyfsbLh8p0s6nbJOQkKBICEhEAKMEPmPkTAYAwYRjAkimAzGGEwyGUwyGWzA2AQBAqGEhIRyztJlXY6bJnXPv7736nXXzM7u7ZxuT7Nz7ye9q9oO1T1d1a+/rqquCuoWoyiKokx7Mi5UFEVRpjnq0BVFUboEdeiKoihdgjp0RVGULkEduqIoSpegDl1RFKVLUIeuKIrSJWg/dGWf0bog8dKAwuYtAhcKzX+DVsv2N/557+l8Wl2FTvgNyoGAKnRFUZQuQRX6Ac942T++qhxvj3rLNTH9G5haEk/TDug/wHtyPHA6AyVTSmcmM1Z7RFFkgoD3kfW8T3oesl5CEKer7XIXccR1OUebZrLS28E750ZkG39bAdu32odp3CP9a/w9mpn8lkp3owpdURSlS1CFfqDj5/4ehR5v3KrAjF+IZE3Nxlj9RrWIQijdbDbv4qm2iJ2EzmRCChmr/11R9dV2ck7JumaNMvZHyRmB9Fjj/3i8edRFudcDE7Z4W0hT9VOXNCe+sLyH7Je+IbR+ExD8dROnrxw4qEM/0JnID4Ekjg14I3JwFPPhZk9GdrIuyS1E2Fy9QYxNKKFaq1uHzzuN8dNE6uTF4bJjlkQRT89FQnHiCJurZGgPt6ncGa2PPR7YSY41WbCPOHJ+2DHyQPPTGy+uKFrloiiK0jWoQj/Qkdz3S0FLEYgNeCO/yNQT2W3D+ljF6Cv0JC23LLJiVJJCLUZDDQvwk/Picvwoqpkw5J1S9Z9WWcR2uzjmv6UqJsxk8RfFG3Dn4d8NaZrpcqj60L01pHg7EeOn30DDObdS6DhXgA2b02xxDOWARx36gc54uS+euAF2IlxkWjiUCUqS7xwTmrZ3vjdJGoeRenfsH4bslBsrfBoTQS+VtHeKf9B0mcRqtSh5IMhtgF3TOvqmE7TUY+twx/wYu52/KHmwyQvwxLXhfK3FkctFAPKE81+kJ0xJOcDxS4qiKIoyjVGFfsAi2e4rQsFXgRJPl1GJabPU1GrVpCdJmHVVCV4atRpXuwBphMRxfDFcc6daq/GOuZxVvm59Fd3cLbkch4AUvl+DYcExJElU+TiB3tDwKeul8RTNvYHXCya9ZVxIq/xlbltPqSeqXzZrJpB88PNDTgr7SlqKMj5eMVYURVGmM6rQD1hECYqE9ZQlPefds75FQ2fLEtOwmaRtN0zq4v0NOA6FLMeBAI7cbtUqh/mCTcmdXsUuGx7m+PYduyncunWrtW0UHxocoTCKkDanWY/jRMEPzOincMH8uWb27JkU7y3mzdKDeykuYHt5U2jVNb3lzUK/0VfYvFVac46Y1Id7ibZMzNHi2IqyJ9ShH7BItu/JoXPQ4GC8TVsXHlkK58bp1OBo3T7S+Ik/XTun2bHDmBtuuJ3iN9x4K4fX32ruvOs+iq9avc7ksj0UnzdvAYV9ff1koL+PnTQcfzbkj5XgkKvVCsXL5VEKS+VhMzy0i+LDI7vM4OBOis+dO4PCY4450px26uMpfvrpT6TwuOOOsevZIeds0knVkPs9hB93vz/tmV+3cdkAYcPG413EMZspyp5wRVNRFEWZ7qhCP8CJqqzQw2yYfJIf5qR6IAWFREoKiow0cErhQZ/vqqsrKeRZIUdWipdKFDVbtlTNmjVbKH7fvQ9SeO+9D5g777iH4uvXbzbFIqvkRQuXUbh4yaGmt5eV98DAbFMo9FHcniH9y9UxfB6ZDLeGxjE0Ci9rHLJXXgtiu1zeSiKr6LmqZmSEq3GGBneYrVs3UXzNGj7PnTu3m8WLF1L82GOPNCuOPZzixx13BIULFsw2S5cVKV7s5QZekHcNtHQGrnWWu1Q2Su/Gv1Ja3Zn+sAdy63J+qDZTbPlQh36A43J/dKRinRE74loUm2yWHYRfOCrOU+WyWeuo2UHVnXMtoDbEbXzddfdTeMftd5nVq9mJP/DADnsMcTq8z+xZc828eewo+/pmmnyeHXY2y/XaZXuMTFigOMLAfWhTd/X6cOhSeoPAPYSavtP3qz0YOPTUucvQAlGtTGEtqpgww9tmXFitlsipg0Hr8DdseIjiccwPg4EZBXPwsnkUP+yIheaUxx1H8RUrllCItoCc69iDoyVn5E4e54NeQECW5e1DMZPUu9vz4waHJET/eelDD+QDKnXsBzaa+4qiKF2CKvQuJVF/DS13Y5FBBBtrAupmeJS7lBQKrJDLlarp6Ul7hEipGWGRan5/8S3m5//zW4pv3zZEYW9xppk7l6tPZs48xKY1i+I9PVw9EWZt2nX3JmBDri6B2uQTKRb7k14uqA0SZZ6eqNXf7kSkEAdBPe2YYxcmP8mRKnZQt+nzW0de6kfsMgwpAEJXrYS3FWlcHRnZZd8mWG5HTqFv27be2lqKZ7KjZu36eyne62qILnjd35pTTz2B4jNnQkVTNKmayVqhnUl6A7kMAe7apF++NvLIVLl/HVqnr0w/9qYkKIqiKB2IKvQuZU8KXdaLykN9rNTjRnHd5FzDZi3i7cIwSNR4xYrVm29eTfH//OZPKFy/bpeZM/tgii8/5BgKZ81cYI/Pqj6u91hFzspcxj6v0aeffH5hNm+VMB9TuvhVKpE9T4ra/fFbnGJ1yhk/TdYn47skX1wKblsXNghTiyxPlL4N01uCQ1xDUeu4DvbMKB5F3OLb2xua3YPckDo0ssVUa9wVcu06bvAdHt5qrye/arzkJc81z33ukyjeP0AB/QbXHm1/m1PdVrHn3GhlaKyWfJTxbFCX3kqh+/XqrWm6AIS7Nsq0Rx16l9Kcrc2OPZmwwb3qo0dK6HqK4AMf9Of2eeihneayy/5C8R98//9MPeb+30943NkUzp93qOkpcMNgpeKcSt066Rz3HUe1BTtwrOfEaTxy57T8ySwaTt2dN86/6SfQb5TBu+xf9G9ADlESsDu0qKZJ4nYdO+i0+gPHkJEJ5HjovONXTcWuHihwD496vWKPy7+pty+06/nJNzq6g8JcrkZOHdxww5/Mth3rKP7Up3I/9/PPf6459jHzKY5+7gDPj7jKvyNrz/GRt3X6FxXgb/cDk1CZ7jziYqIoiqJ0BqrQu5BWWTpWofM2tZilaWzVaiZw3QKt8Ny8hdXnlVfcSOFXvvw9mwbXEZx80lPM4sVHUbwec8tfHPdYZcvrR0Y4zWyYs+rWnUuAagOOihpH1YmrNTCxfS2QqgNRyBD0sg+FLilRyCwsJX0O7FoXAiyUFS4kxZ4ukwG4pBoHJOckEYucG52H21R2iejcedtKZdQeg9X6wAC/ndTjkilXuJ87GkrXreOvX2+/4xoK++xlO+ecMyl+9jNOp3DZsrzp8d4UmrMUy6TfP85TGq9b4+/sx90PSEJluqMOvQuZnEN3IQdU5eA6d5iLfn29ufwyduTr1w1SuGD+kWbe3EMp3j+wyJTLnF4m5HrxfE+fGRziqoa+fnbyo6Nlk8tyNU4uzFjHR1Gq/wWoE5d+4DgR8Z+Rq7fHCIdy2qgZaq4mAvK7JMQHTvYviqfhONhNpSqj+XoAGbkR28hojqVK1eRcjxipOsqGWVPI87FK1p/La28vXxqze3fJ9PTw+igaMrkC71c3fG0fWnmLeXDlbRRfvJh7Ap155gnmRS98MsXnzulJrgPGcAc57+MvOPTWPV38X+PHhUleJ2Xa0KoUKIqiKNMQVegdSmOm8F+NXz366srFG1bzH7KoWaF7tQnELbdsN5/8xBcpvmN71Rx15OMoPnMG91yZMbDU7sOSs1K16jBwrXeu5wm+Ls33NClXSFxXvGKryrM0/VuKVHeAVlUe/inzz+Htk99iF0rxTUqx/6VomvweSY5pdxexK+eHfumB612Stcq46l5l5JhBPWNzgNejjVXSkhcKdDyROBo945j7+Md1DnuKGIKABwxbvYb7sK9ZfZvdbgPFL7zwteaZzzyJ4nLJ0PtI3gpAzfuKl8GG/gWQuHdRG8qQ0g14pV9RFEWZzqhC70B8bYWGwaxrcDOGlW9QRwOjq0OlrytFlbHSqmMn96gWZYkugzI+C+qDRZN957vcFfF3v7vWlEq89PjHnGYGBhZRPI5YledyM6wq5P3RrTE5Fv0LfJXn4l7Jatza33bypHt5CTtan8e+xB3BJj/26IF7gxgfucuQHXXDajqKuD87Goxl3Jgo4jFlqlaxr1p1E8U3bb7H/M3Lz6X42U8/hcL5CzAIGkXpDSLn+p8n/epjpCnXAmlz+lV8RGDJ5Xts3vIyv8to4+VzJ92SyVzn5v0ns4/ySFCH3oEgQxIXbh1xXno7uFEC/c/Xo2rMn9AD2QmrXf/qUomdR6Ena29gipo77ths/uVfuHplZHSAwiVLjjOHHcaDSuVzs8yuXbxfJsMNnPl8MUkrpJGm5Bz84iM3rAu9VXorM6jOkTsuqbKxFyet5uGwVhu2+cpDKFRrW801115E8VyeG1Lf/NaXm5NP5lEf587JJtc3ch+H5bOhzW/JQwxdwMvlgzE6uIiCpK++pSGjJAO9jGzO43HBPv5+APvsaT/lkeCKkaIoijLdUYXegeD7R/wHYhsmw6i6nPKfwjTNWsgrqm5WnlyhaEZGWJEVaFxbdJ0z5hvf+B+K/+43fzJLl7IaP+wIfoUPMjOsouNGzaBetIqcxyGv11nRYcYhv394cjLyqT39yeoLjYRKI3KboRokVegcQSOvfLEv6zCsQJBhNR6GJavYOf7wBm40veeea8zZz+C8e+0Ff21mDPC1L7rukaOju01f0Y0O5ivj5NiRPQa/smVz4/VhdxsnIXDp7FFpYx9/P+CdhzIl6J2nKIrSJahC70AwPkksDaD0zGXlXHNtaPimJOmdZ3MvirkhLXSNnqVS1eQLPCiWDKj1ve9eZv77v35H8WOPeaJZtPhIipvA1ZEXZlm1zxI8qmWtauTGUBnjBA2huRyrK9bkUmycQrd/S4OcDPuqaizFV+MS92+95g+D4rhklTOXgTgetXkjce7quG3bSnPln35B8Re+6HTz+jecT/EZPOmT6bEvZhnpUlqtmpwb+KzsppAqFH1V3iqf0nNL49husnmKfaRsCDgfLRNTiTr0jiQ2tTrfeJkgZ28BduhjfKglsgvFoQfOKWCS5NWrufrlS1/4EYV33L7JPOa4Myg+o3+x6SnOoXhc53f9uJ61jpz3R/tZJsM3fC7Hy5C0DNhF1QNJt47Uoac3K+8TeI1tXpfzA5Kk67wN5Y7z++E3fyeAnjA9Rc6b0ZEhk3cOORNwNUlcHzRDQzwG+x13XmpmzeEn74c+9CYKDz1sRoPrbEwdk2aXbd5yufK/AWhEzm+clJrztCEZlItmh04Fh6PKlMB3nqIoijLtUYXekaAplBUXRFw9ZnXmupQbtGVJ9zYIN8lAEXzD9q38r57x9xTvLfKMQU9/2vlW3fE4IabeZ/dx6izkkKppXONYjw1KLPqtkuMQCj2pFYDImkihuyqXpArGcqArdMFX6K3whXrsJpaGks+7Fml8cQvQ+DkyspHjxWFz6+1/pPjKVddR+JGPXmhOP/0xFMfXqZGrO0MjOigU8rYc8YmkQ6iPd2JyUt7JtdrUW413x7RsyApV6FONOvSOBFnC2RLZ7Km7Kdky8pFQFNubULyrMdu2c+X6Pfc8TOFnPvNtk83wh0HHHcuj+GVDjFXO9ephWKSHApC0Mb2bTPGGz9TlJpduy3A0UuVCTsf1bkkmXAZj6s4lVIfu32bN1StA1vvrQterCHklQwfE3MXIPtytk8+xk65Wd9iywUMH3Hn35RQ+ZB37Jz71TxQ/48lHmbJ9YIOiG54BaUoee7lkzc+o5nz0zrtVfnqrGx26gAOm5VbZ9+jVVRRF6RJUoXcokisQbNInXTIKFTLyLB4cMubqq+6g+Ec+8mUKlx18sjn+uKdSvKdnIYWDg7Hp7eW+5ZVqPWkIi5zqRjWLAPUmYos/87fHtKEMJ0tv7c0KndS97OV0gley3FaKpVmgI6+bb0Modfkif3g4NjNn8jWtuCow1MZk3XABGM23XOEZkYq93K1p7fqbzW13XkLxl/7Ns8wr/u45FKePfC2tFDp/gdx4Hky6RcJEmxGq0B8N9OoqiqJ0CarQOxQZdwUqTebNrLjBnLJhjxnmXo1m3doRc+Hb/pXiuexSCh9z7JlWmXMdehS57of5PlOrcVZD8UsfZVGLzYNLNYitJliVNxcb7CF7udDbRBV6+0x0Y9LVdhsgJwP5biHD47/09pfMjTf/luL3P3it+eCH30zxpz2NG0op+2V/l11ololcwQszGRvnOvrQDXuMNpbmt4vxQY435nqgjaJTjjr0TsXlSsU64cYPerAsnXX/Xe/8tFl2MI9dvnQxj5k9Z87h9tWcb8JqjffNo1eDl9NyE0tjmw9WjRk9kBbwwjHrCNqLoy3Wq0NvH68b/1jsNZbVyA+JZzLshE2w25TL6ym6eu1N5v6VPKrmv3z0HRQ+4QmHGZm1zo3jRmUhHQ4gtGk2ZmS1Fnnjre8J7Nvs0PnRo0wdLNMURVGUaY8q9A7Fb4yUz/yHR3jh/fdvMm99679Q/KCDTjIrjuYvQAsFrmYJTJ8plVmpBa7vG2YPqrqJMTGWOubYAUnfck9NYU2zjqK/G0pKiy0mKEmNWk3ZI0FsFbqrdwPui95Eg3nXmvIr+ZuvNCamLhY5HuYGzYMrr6X4jbf8nsK/f+2LzHnnPYPiricjNbTmvcbxZmIr4aWqbs/ghBoLBH+X0FxulH2JOvQORRw67h98KASG3bgs73znp025xOOYP/5xzzGVMo/HUi5zp3F8NCS9WHIFqf/EuCzsIFCXKY5csj+QUROBXdR82/mf8fMu8vfkblAtZG1CDt1Vn4C6VHW0cKhefkk1Smk0NmGG8xuTUcdmM8XlA6Q16280P/7Rf1D8sEPcxwY2Hf/jsQrq9iy5PD9M+BiTy2+mMdf9D82UqWGyj1tFURSlw1GF3oEgQ+TLyqEhY3bzR4Dmu9/9JYVXXXWfefrZPLpeudRv4pi/AJXP+aHus1lWQ5K51VrVvi6z0sqm9SyehoJC578adZTTZV4/8/FKzNjFzUsaU1YmgOpQ+K2Jr6InnQn/2iLOyytl3icbhslXvpXykJk5i7cfGl1H4X0PXGNC93Xphz/wjxQuX5ZNhnpA1Utz7UrdRPYocnw/LyeXr5PbSnkkqEJXFEXpElShdyDIEDcFpFXWxnzi3/6L4n+59kEKjzv2LNPXx4Nu5bJzTC7PCt21eZpaVLfqi/VQ7AZjqtdjk3OfCaJ7sXRPC93wuDhqczc1wtWdU5eziUqK3SxZnbTQ+TtgA9Voe0t66Tg/qY6dYxZcW87HYpE3HNqdjsODfKhUtlGs2MuFpJ7ZbS679CcUf+LjllB4wWvPM8uWydueTbVJ7lVr5aTbIn+9LCcl4cRlZNxRepV9hjr0DgQZIo2iF198l/ni59mhH7b8CRQefthpZnSUW7+iuGCN7zz0HQZc5ULRpJ85almyrqMEXsuTTPeqXxKHboP03nOxPZUSu5kMUSAOXT6IAvRRiTr09vCvuWRDxj3pMRK+XM56zhpnrnt+k/OUwb2qlbLNZv4oLeP27+3LmQ0P30rx22/hqQlf+MIzzMtf/v8o3ot2dlc05GMijACacX+oQ+9M0rtZURRFmdaoQm+b5svVjuxodanH7o8cWbWaX43/9m/fak567NMpPnf2URSGwXz7OuwmcQ7yySBOos6qtXrSKOpqVghRSNVq2fT1scJ3PdOItC/zOL9qopJid2it0DklrrJpmaoyHv71lksXsMLmPuq80Oa2/ccVAgfe0EqjvG2fVeOVCs9gJVVxUa1q47spvmnD1RQ++NA15q1vu4DiZzx5hSnwLIRJtR2GBpC3rsY+5U4X2vNtVUSSrSSiTBnq0NsCl6r5cnkvOeNcSXyQATDTepjOJkBUa7G9+fjdOHLOtVwy5l3v+hbF77pzs3nWX/01xcMMT1ARVXutU+YeLbHJJaMgum7mDX6zpQ9tcZ779F7znwwCLdI7+hGTfC+QPD4tKIPu2vqX3i3iqrR0PyEI2Mn3Fnn8lz9f8wuTL7KT//fPvsvMnU9Rm7o48TgpyxkrJJqzmf5skcWyCGGL1co+xPNGiqIoynRGHfp+ADO6wzDLUFyvkUHNwMIwm8RRdQL78Y8vMZdfdjPZk894rokizDBUNJVyhqwW2WwLrKq31tuDWd3ZRAGxCoKSim2crVG6pUyJasJrQbPt+6McmKA3C1loFbJYQGqZzG6SmFvGeWALFhmqZ9jq9QLZjp2G7KSTn2E2bS6TffHL33clyL4x2rdIWD0ZzxzHt8EE4P1B/lP2H8gdRVEUpQvQOvS2ILnD0QTvmdjqSlpxFLsxpjOZuim5KWcKeW5xgtqW6UFvuZmHO/3wB79kli/nGYeOOvJJZsPD2yk+0M+VmhjjvB5DLSFtjLVB0aSrI4ti94c7KfQyZ90GsEESUw5UkrFiuC69bnaaao3L4I9/8gXzzW99jOJPPHU5hXVbwIp5LqwoPs116FyspNwlRczeIVzK0JCq5W1qUYfeNq0ul1dMWxTyyM3zhh4G8gpKPRMsURyYbVv4JvjS579L4f337zKnnXYexXfsCEw+109xCUeGI/twYIeOydylUZRqNoAN05H65HhYKRukD6ExN6Vy4ODKSF7G26/vNqXyBopXaxvMJZf+mOJ/uOQbFPb32XLk/DU+X0imH3RlrBkuc9guDaUEKlODJy8VRVGU6Ywq9L3Gv2wtdIesplWshGIXgoqbSQhf+f34B1dQ9Gc/uYzCU04+x2RzB1M8k5ljt2E1LyG++Bx1U9Dh8+5kJqLkNOyCJoXOK2UD+xxP5Lxy4OLKhquey+etpg64C2PZKvW/3HARxZ/xDJ4J6zWvOTt5G8xmob+lyobTYf2dljHxLIEbQ0BL3NSjCl1RFKVLUIX+iIG6Ee0xngZhtVyplU2YDG7ELZnr1lbMu9/5aYoH8UIKTzjeKqHCYorHcc7s3s3jcOSyvA9UkjSAgjEZSIqruX7TU080kJPqJYWR4XzKlVFTKHB56euNzJ13X0nxXbvvp/A1r32uOfvswymOIV0C48babVDo3Lbjl7Fg8jNLK48QVej7BHGgrZ+NeDmFheSQ8c7q3lstl1xytanVimSHHXoSWRwPmN2DFbbhmhmYmSeje8Xa7qHIZG0SMIDZ/GVGfwZxMQE3lW+KwpSrEVmxt2iq1SzZ8HBgDl3+WLLtW6tkl1/2F+vc4eCldEk/cy7/jX3OrXun/vG2rDUXRWXKUIeuKIrSJahD36eIFGktRzCEbGQVCwwzw8B+8pOLzJIlR5MVCvPJwnCG6evvI8OXpCW7HQyVY7CBmSE1isKgjfL5gIz6ILbqHCyKnNSSiysHPFIc8nnMbmTLZoSSkier1XKmVrGhtUOWHUt26y33mdWrtpChlMmbJ8cpRfqX0XL2aKAO/RGDgis2lsaCH9CHQLBrr32QbPeu2MyctZQsEw6QVaMwceLecOU04QAMfc8x1jWNd20PG1kvD8NHHWw4qn9ezaYowJXO0JYKa5Va1S1Bn/OCyeX6yQ4++CiyQmGWufjiK8hAuVIji2Jb/sgwzAQ+I3KFVovbfkcduqIoSpegvVz2CeNfQqjympvxOcgEZutWjr/73dyzpSd/mFl00CkUL+R5WrmRkcCE7us9UVETM3Z9KoxcjKpaVC4pKTI8RC12vagwhgQGfrPEtdj09LhyFeygYPuO28w11/2c4hf//ktGprjLJP3RYxvnXlw0Dr+bSUtmTtLiN/WoQlcURekS1KG3iehlMUbUb2sJElplDsMQt7/77VVkDz24hWzJkhUmE/aTYW5QWIZmlXFHgIrakzWRfrFnLWkIhSnKWDCTkJhQsxI7tuUGVquyHbTgUOswBsh++MM/0oQqMIxLBKvYP+S+wFDR0uaj7D+0yqVN0r62XPrHd5PsaOu2+LsaF7PDvrlecMGHKN7bexiFxxxzlonj2RSvlHlauJ5i3kRJv3I4bYn7WeWOTM6aYUduUQeuTAYnBoLQlVVbvOoRfxgUR9ZFc5QG7QK53G4zWlpN8dvv+oP52tc/QvG5cymw+1STh0I2g/HW+Q832Gha9aJMGfr8VBRF6RLUobcFFHKTNS9KSBdUq2wPPbTZ7NoZkc2asYQszPRbhZ4lk8loqk7RAKhu+eIusCtTc8voP9dVTBKwf02Mf8LpeSoHJtKVFt9JSIkCUNiwQm6ArFLKmtmzlpGNDGXMxb+7hgxvoLAwzJkgg6qWjInq0lDKylzV+f4Bd7/SFu07QPQlh1126VVm4cJDyfr7F5DVqng1DckKPXmyahW9DnBTWSMnbd99yRBvZdhuT07cIh8eNdTBYzmvVg40OPPrMRucuoApE6VcVSp1skJhtnXkAVlvcYH5+c9+Sza425Dhrohi9EtnS8qbst+wuaYoiqJ0A+rQ2waKo0l1tFjkL9yxo0p20823m3lzl5DNnHEQWQWTO2eyZPV6TIaZjRIx7Vur/7z1E4MNIMHsMawyFxvn5JUDAafAwyAkq3tVfTItIpBJyE2ct9v1kS1dfKQZGqySrV2zhYxwb3zcU4vLW82qdZgy9ahDVxRF6RLUobcNLhnMSRHgRVvxwANryaJq3vT1LiCrVnNkPQWreDKYKDpjSqNlskI+HV63gX0qpvdw0soBgzSK4s1Q4P7lbH39WbLh4ZItMgWyefOWmZkzF5P9+eobydDwHwY5soz9D33ZYejCCFOmHnXobYECLw6dwaBEvp+NajUyWTY0XDP33L2ObGQ4Z/p7l5BlTB9ZbPeP7N0D6y0UySL+Eptwb8WNhuVi3vKJwQZ87kE9tMa9ZSa5s/IogFyZjD1SaLIKa/4XKRn0TQ+tV7dWtuUZlu8rmMiWGVgmnGGd+mFk9933MBn6oEeRLc/WcF65TJ4sKazKlKMOXVEUpUtQh94m8noq4DU1iqpk9Hc2SyZDim7ZstPcfPPdZHhNNaZIlskUyKDQ5bNrNErBoG6mhETOQ5k722c6T+kurKTGROPW0gZ0LA3JMpmimTVrEdmWzYNk69aOmmwYkqFM1a1ShyUKXVX6lKMOfZ/ATjHGRJ+u4MYR/g7Mw+s3m5tuuo1syWI4dFxya86PxvbpkLHeHEbvvNbUvSpAfOCebN/ip+oKaWKu7Fqr1WLT1zuDbMuW7WSrV62TImy3xqz/1qHjD2W/oQ5dURSlS1CH3iby1SeqSmAgm82SQZfUIdKt5ezfsPvvX22GhypkM2fNQwpkUnUTBBmaFR0m/dAVBSQ1ZONYg3hutn1Cq4Rd+bVvn5lMjiyX7SVbs3aD2bJ1Nxm2zYRoPLXb4zaBYXdlSkHuKIqiKF2AOvS9JI4jMh/Ug2O+T5iokuuuu80cfPCRZGGmh8aXhkn3LoyZIQo9NUpOOYAhFY5wHAOtlie212UIOzqjk2g2KO6MyeWKVJ5hixYdQnbrLXebnTuGyTBstCQT27dOmDL17BeHLo0j7VjnwrdMmM2QNWALby7HhtoYGHq3HHXk8WS1WmjqcYbNroNlgpCqbmBw5Kkz5+MoBzDOIbb0q3bVREbY7cj2yJg9Lf6OfkIcD0zORLUM2dw5i8j+8pdbzO5dI2RAUszY+wSmTD16lRVFUboEdehtkSoZX7PIYlLd7s+NG+tkQ7urZs7sxWSmnrfboPEzsMqcDdRqVTLZWxtGFSBlqaVJAWwoiJOHd0M5RmoOSkeOACRxuAnnKtzqehwmCr23OJtsx/Zhs279ZjIvVYufpjKVqENXFEXpEtSht834agONoVHEtmnjdrLe3jkmCHrJjPEUur3yMKj6yO4AS9Nunb6i+DSUFhHTe0VDSuPib4V2oiAokOXzA2SzZx1k1q/bTIaNZFt8PAdTph516HtJXf5DiXWgK7rcVzfecBvZsoOPMNmwl8zeBiZr7wQYXpnJbALZrF1mTUBPF0XZX0jVS+AX5j1QKlt5ku8li6OQbP78peauO+8n8/03enLRDEjKlKNXWVEUpUtQh/4I8cU0BI5Upaxes54Mr6H12CpyMsxKxNulIIFmU5Q901BiUKYmL7DbxCVuDyRvlijjUYTvKVCFaMu2tTmzDzIbN24nQ7s+7g192dy/qENvE5RPMluqYUCcNPqdS4G//76VZPMXLDZRnCGLaXTDsQQ2G2BCZ/fDV/YXSVlrZSgivrVJ464tjuDKNjP2IPiiX4avQFUibMH8pWbduk1k/gQZMvKoMvWoQ1cURekS1KG3DSuY5ItW/O8ssFezUmHbtn0nWX/fTOqzy4bP/p2Sd8Z4yohMUSwoH9b8icATs6smMsJuR7ZHxuzpcAlgLPRkQnEf3ieDKeeszRiYYwZ3j5KVSryFsn9Rh64oitIl7BeHPnbwqT1bp+MrbInjtLdtL5FlMpjVBYb6RVxmWPq7sKvbvQWd//uVqWVPKhy0Wp7Y+IXLQ7YWvDidgChzZzSDEdbxWybKO5nJkoVhwRTyvWSDg3Y7nANthwHoVDvuD/Qqt4Urzdb8QpoUbGtbtmwh6+npJeNGI97HlW925LyoCVk4ZoVyAJJUr4xjDQWq2dpiT2VOEkVh5rgIGLaQrF7PmJkz55Bt37YzaTSV7ZSpRx26oihKl6AOvW0gNdKqISgV6XsOtm/fRpYAJZ+xCgbWQqVIdQ3MT1viyoGLXwomsimBui2iUFpreCWASo+pLIsCl/ILlV4sDpBt27bDbqfsb9Shtw0XbBRoKdQCCvXoaImsUq2SBdbTJ+0Cbh8Yp8ImuMEE3LLmtYqyr+Ey1ljuPNxkFrSCVkrEln8stlEyW7BhmTBnwhB16VkzPDSclHVl/6EOXVEUpUtQh94WUCcYFTG1MLSBo1yumaGhEbJ8Pk+Gaeqkzzr2ln7oCSKCYEFMFiNtKBtVNwc0KCaTsb3GlbF6YMsmGS8mbMJBPWw0u5i1OFam+0mZrlZrtsz3kO3auctk7DYwGgdAx/jfL6hDVxRF6RLUobcF9FCTIXDw/KA89nNSbz4OfipO+iSKJ22AorWKMsW0Lm+2BPN/VrrTuEWehMfw/WEYkMkk0Gj4l7H9A5LmQuv0lX2POvS2cJ7XMzQKCRlbuNPJKpj2xoF26dKNI6YonUJaLtEZQHp3YcpEWMY68Siqkek0io8O6tAVRVG6BHXobYKmTfwnSsWvVUFc1AoaQ2GTes1M3kZFASlKZ4OyDpXO3Xa5AGMZVDrMn3Iu/apay/ZUow69TaTvbUJTGc3lcmRJXSKtTzw2bz9euU7qKcfbQFGmEq9gUxF05TYpkhIJaLrFKKqTJU68XqNqRzL7d0qSgDLFqENXFEXpEtSht0uDih6rOgYG+smSKhfqsYLXz8k0Eo2frqLsf5xCb4DLJ1cv1smkcTSO0SBaJevv7x/zNpt8j9GGKe2hDl1RFKVLUIfeJuiGCIvjOhmBwBpUypw5s8lImaNfObpvJX3L20GVutJppOURPXPDMEMWZDC2iy3rJjKjo8Nkc+fOaVGCtTxPNerQ20KKKPqfp6+ECGB4De0f6CMLrAOHpdUtk612ATYh7MrJK8qjRHMhRLlkq9Xg0NnSsh2ZUnmYbMaMfqwgoGm0W/r+QR26oihKl6AOvU3k0/7QShMYL2NDF65Zs2aSlUojZNlskLySShWM/xUdVL2Yojw6oPCJTUS6HbotyltqFFeclU21ViKbNXsg0fdavvcf6tAVRVG6BHXobSKNon4dOhpDYVAhs2YNkIVWmcMGB3fZLaDI2dIGJP5P1D1MUDWjPPrwG2VDY74XRaNoNmeVujVR5ZkwNtu3byabOy+fKnMxZcpRh76X+A4dXzXD8KVcb58hk6oXOHTpm1uvy1AA3GBKjaYtCrpLVlH2M648TsL5wlFXKhWynHXqsF27tplCT0jW0+M2tKA8a5neP6hDVxRF6RLUobeJKHOpevHhwbiY5cuXke0e3EnKHYZ+uqLM5XVUqmv8pFTNKPsXkeUwFD4odRc2GNYzaBStVDF3bimpetm2baNZfujBZNgU1TKwFKShTCXq0NvEr2ohvPKey2WTQnzcY1aQbd680chEAHDadROTydAAlBZywZo4eb8XjKJMHXDQqZNuxCvY41Ao5MlqtTLZlq0bzWGHLSNDWS9XymSpiMGQAe2Z0h7q0BVFUboEdehtkioHVi+1WvpOSUvtYtixx64g27R5g12a9nCR/eK6VejWaHYXu9oX5ZQ+ElOBouwX/MImZXRiUMZzuZDMBLbwWnt4w1pzzIojyZCcKPg0zT2nqzwy1KEriqJ0CerQHyEk1nEV3ZUkcW1t+fK5ZOVyyYyWRshqtaqRyQDkS1OocamXF3WvdYdKp4NyKvOHlkrDZNVqyRx++HIyHuuF247GtDspU4Y69DZJR1mE02XHLG+TpdJo8vI6Zw5bvlA3g0PbyCrVEeusuYEIDagwjFaX7OTj0lSUKWNMGbPO1/4ri2xJdZYh8wtpvV41cb1MtmPHJrJ582aZgf5eMvSCkWEy0mpKZapRh64oitIlqENvk7oJyew/bJ7wKPb0mZy9orBame1Jpx1v1j98L1mx126cickiNIhaq8X8BSksiuxya27ML0XZL6DLOYzKs4P/zLLVbZm31kjF1OMhsvLoDrIVxxxqDlm2lKxasndJJkOm7D/0arcJnK1Xy2Limv0HHV3I0q4q+PQZdsIJR5l777uFrFTBR0Z4VcVQAFz/SHXqYYYsm2WzixVlv9NYKYK/xFKkEiYM8ZEc+piXzebNa8iOW3G46S3myQoFu1VcJxsvLWXfow5dURSlS1CHvpdAjMMyeBNNDAoEKh1fg7KCP+LI5VZ1R2Tl8m6rUapkpm4lvbVcNmfiqE4mvVxszO6pKB2CL64D+/poDY2htWiUbHR0F9kJjz3W9BTtm6k1bJ9MlC4FW5ly1KEriqJ0CerQ95Jk5iFSLlAfbLFVIrCqFTKwgxbOMaefcQrZtm1rrWIZJTN1uxIDdlE9o41C8bt6dfTdbVBFijIluHLrWkXr1DIqeIXPbcbb2bdLa3F91AyPbCebN3+AbOnBC+wbpyGDIJe2Ie2Hvv9Qh76XyEcTKORxbAu4NZRi+XAI/XBhixbONE960mPJ1q271zruEbIAIy9aQ1VLmAnJgiDjDEeQu0hRpggnGlDFh/+4vLmFvIIsXVKzZbPirGS2b19Ldujhi8hmzspSFSQM31qIIw8ytkxrb5f9gl5lRVGULkEd+l4CFc1KmqteeMhbWkDI+mKvMYdb9QIz9WFTrQySZcM6mX13NYWcIcvYHWDoi64o+w9R5zBHgzIXw1ulVefWyuUdZuu2tWRHHLGErFhEceYqRyQgMxop+w916G1Sj63zxufMtsDC4NDDbEjGHt4V/VpEBj+/dMlcskMPPcjs2PEwWRyNkuWyaRbIp9Ja36g8OtiyW2ejUgynTo5dBgFIq1x2bH/YlEo7yE48cQVZzooS+UiOUnNViJQumTLVqENXFEXpEtSht0k69Ryrjsibdg5/y+Bdsh1a/OfPL5AdduhCs2njKrJyaRdZJqiZqn0rhUm/XRpjWlEeBRIt3fCSiCpADLKFbyjKZLt2bbRlG99RROb44xeRYT8MNkcDzlkKhQIZXjj1pXP/oA5dURSlS1CHvtewlgkzORviMrKJMpchQ6FMIFhgTzvrDLN750aykeEtZHX0SceXo9akK2Stpo2iyv7EvW3ii2Vb9GDFHlkKq5FVa0Mmrg+Tbd223rzqVX9DhhdWGER4JrDl3xrioszRtETNS8qUAy+ktAOVVI4yabEHzauxFLUysONWLDWzZubINm96iKxa3WkK+TqZOH55ZVWUqSQtq1x+UdUnznfU6gz5lkIaQtGLZdOmVWQDA1lz9tknk/HextTwJZ0jsK6lXKmSKfsP9RyKoihdgjr0vSWRN6JPuBNjM1iDHo2wPqtwnnPuWWQbHr6PLMjY11hjX2OtZXN2O2tR5De0KspUweVW+o5jpNvQKnJYLcI4/WwmKJGVStvN7bdfS/bsc55qBvoNWc1uAsvnsi5FJpfLkSW3ijLlBHXt9NwezVeLSi8vRE/dBG87WYpCPzjE8fe974sUlivzzDErnkLx4ZFeCuO4aLJUN2+p6zNXmRrQ5ZxCV1hrVkj05K03R7xStmpvhOKFAofrN9xk7rz7Cor/939/2gwMUNSKEg5lDBfg15nXMMGoJYf6G2VKUW+hKIrSJahCbwdcqearRY9EXihKhxD5A33uOq3QErf4+hs2UPiGN/2zed7z30DxKFpIYSaYbTPGqRlV6MoUkYyumOFCSWOXo4uLJRNUrPHrZK22mcK77r7UnPakIyj+lrecK5tSwymoViNDk6Zb0OtF7gsJ3fenFFemBvUWiqIoXYIq9HbAlWq+WvRIZKlSFylOOCWCCXZdGydUi6tONBmnal744neZniKrnlNO+WsKR4eLNmOkDl2/GlWmBlHomKwc9PRkTQn9FS35bM3U6zsovmrlDRRu3HyL+bd/ezvFjzlmZqLM0X8d4BuKxjp0Tlfui4zBDqrQpxJV6O0gb4y+WVDVwv/FnvF/6PsiH16AMMSs/qnjf+lLn2e2bVtHtnXrBjL0MFCU/YWMFspDVrCF2dgMD28nw0dEsJNOPtYsWTqTDD1hoAVhpdIIGd8SXObrPGs6WVzHlHVQMs1qSNnXqENXFEXpEtShP2K4syKb/x8vg1ZJsAuCkA0aHXbGk081ixfPJrvt1j+RoTFKJpMO7FbNNimlE9jtmo32U5U0feD8EtUL23d5mKaRz+bJyqVRQwNwWavXR8yu3Q+TZXMlsuc//+lmxgxDhk8l5KvSvt5eMqh1GQI6g5IK1W8ttAUepkw96tAVRVG6BHXobQFVk9YNkpHQwWWEJsGXcmL425pVMHEmYrMqmWcStQre7gKbNydrTnviY8mq5TVko0MPmEJYIauNDptiLkMmCh29zGQyXvQ0i2psot24x6ScI+ouMbgSjmqPaS3ji3alQ/Hf/FKFziVNlvF6HylX/qRXaKgU89tzZLIW/AnLo8thPEKWz5fMmrW3kp1x5mPITjp5HnVVhNF8Lnaf5uPL4HQ4VhhkyeReGLu1sq/RXi5tgUvV5AWpn3iLgup6EEgjKajRKyi/emalm4vdbP06jl706z9S+Pvf3WSeePJLKN6TX2xKboCjSpXTjOs5e9PmKY6bN89RU3E9aOjYAU/9xa/pWGTP0fWcCWKcM+NFlQ5CHDjFbcAxi/sE062hf5N1wBVFbOa6l1PPKrnNaWJzCxpApftVLSpTmMtVre2m+F33XGnL3WqKf/Nb76MQEz/39/L+/vnVk28uGsH2jWC71tsq+wa9nRVFUboEdeht41QGKd4WikNW20D0idXl9F/WymlMIQpD311YyYqjJUvZTnvSSWQYUnektIGsXNtqk+OJeWUS6YG+vMGkRrCaFeKYh5fm4pXTCVh5ATkPPlUbsyanTsuUjofKESS3NclP+4cXt/+6vK1FNTKUg2TC5gBdZXmsfZcMlSMoaFg+XyPLhINmeGQD2ZV/+o155avOIysUMJ6LMb1FNPazMhd13ggKVGqoIGLjPXi5MpVolUvbyOVyhbP56o1ZHJlylQc3yudQN8LP0MiF1UpgbyaOD/LbrrnoV9eaT3z8OxQ//yVvsnfmLIpjSABQLveYQg9X3eCBkHVVLjFuahCg7kWqhngZ1WG6YQQCCjnefPpKp8AuECBM84mX8t+S3+hLJUs43zOZwD7suaouDLM06iGIXbUc2l5MwB8RBeFWCivVDebqq39L8dOffJx5/wdeTHE8AIh6bEUEH4fOKTkpLot0CrKtRVbL/t4qZYrgu1pRFEWZ9qhCf6SMc/XS6gwoJqkCiU3NNURlAm4UDQyUE29cc5tVrOq+8MLPUfyhB3abpz3lfIr35JdQuG0bPtPuozh173WP5cgqKIIUeiPUKNqgkVw8GfzLX6d0Bn7hapE/7o2MVLmLSw8WNIiWy9zYmQ1z9m9W0ZUyl418tmCCDL8SZgsPU3jDjb8xxSIXwi988Z0mX6AoVbeAWrVkCskE5vYAUsi94SmSM8ZqibrNXKBMIarQFUVRugRV6PsC7wqObWjESlZF1ahs1RKrGdmlTv0GeZko9Fwua2R6xr965pvNoctOpfgxR55JYTaz0JTKrPDR+8yNjWQyWUlV6s9TGk8L62WJe6brML2dTZKBkseIJaXIhRb3loZ5aatV7rqKMldzcXzFCQb6+m155GFxH1x5MYWr11xnPvnJD1P8hBPmp6kGXBeft8W07t4wA3rDdMo8TktXuo8zn71wNZhoXZk86tDbJL2JJl/QYkzjZYlqFZqmyyeyHjl0sxPxZyMI8RkQc+UVD5rPfeZHFF+88EQKlyw+0RTyCyheKtkbNsfvxP7HJC2RRtMkdaAOvVNpcI7JX80hSL1n7AoBnHiEKbIsGAyu5hrmczneLp8PzJp1N1P8vvsuovCcZz/OvOkfz6M4dEdaVcLqol6v2WVSTuDdpey4DS0N55wuZtShTzl6FyuKonQJqtDbIu0elsqPPSuItM9ubFU0qyYhzGSTtVGN1VVgFftoleP4svS7/8mvxL+96DoKj13xVLNg3tEUL5XyNn1uIDWBU/qtctQ/zWSgLjBWZSmdQZKNlDXur2S8Bvzt8gxK2eWffB2Kbx2qrgxh9qF6nWcfKvZyOiOjO8w11/6S4s865xgKX/nK59DAW6BSjexboJQJV2VYrViF71pIGxQ6B6DhnGV3WeptN1lUobeHOvS28B26MPFLztjiKPtL2GoLHlMR4J7ctJF7K/zHV7jq5d67t5iTTnwGxVGfXqv2UzyX5Vl7UV2apC6n591g+Oxbb5TOJ+OqqDGyofQvTz8aw9+cuegpJdks/cx78nDAHA+CYVOLuK95T5HL0r3332CXb6f4v/7rmyjEpM99ThtQWZGZWZJje4XIn3jFuyVSXYAy1nivsKdpr9xpOW2Pib2RoiiKMm1Qhd4WrRS6p1o8PKHSavWEYJeKP60XxYxZu2aQwve/79P2STyf4kcf+RSbidxAaur8RamJC0kvmSzXwhh8pDo8ykqrWEQPCIqy6FI6DuR51Q3Gls0HyXRv0rCN3iY8gqElyiRiGkNBgGIPlL1k8m6TL3Cf85tu/gOFq9bcYr7xzU9R/KgjWZbLIG9C2qPFlUC87klh9LVgssxGE1XeSqG3vlcmQhV6e6hCVxRF6RJUobcFLlWryyUqYhw10eYVhpCp1ninbDYwNdd3GONMA+TYUUc+i+JPftJfm+OOOYviw0O9FBZ7Ftj9eNvREgV0Cq4LPA2zK1//oX5W6TyQX67mOsk3EMcswVk9c3mrW4UeuwbQ/l4rzS2VcslgOFyQzQ6au++7guLXXsddFL/0lY+YU089jOJQ88AvvbUaxt3nMpgJRfdNXL65/tz9Yc9+rEJHOuOkMQ6q0NtDHXrb7OlyTVAAJ3ulbRLJbRGjOYxvzIwbQ71SyZi77+LPtd/8j/9q5s5eQfHHnXIOhUF9lt2P3597erihdHikbIq97MXpi3B3mnq/dCaU/86P4nku1R8ZzE5CIXpI8Qb1CBNV8Pqsc6JxPGKqFW70XL/hDrNh460Uf/d7LqDwpFMWm15+/su3SA3ALUiPmUAilmR0CfHxwK1mT8IbsDOXUsyoQ596/GxRFEVRpjGq0Nul+WqRgJjoEo6jMPxdWmxSKbEqz/egVZNVz+Aw9yXu65uRNGree88u8/73fZbiuexCCk8+8SybJncojmqsysNML/Vpp3g259SUXd9CnSmPPpQ9rlzga2IRqrmsFJa6zVvugojJxMMMt4Ln86zUo9ouc+21v6P4xo13m4/+69sp/rSnHUohZr/qKXJaUhb2JIaxXew11jeXW3YlvJ7TcgkntK/QlfZQh94ura5WUkZ97ygbYqVssKfC7CXuOvRWymXr1Bu7H6Cfetn1ZsBIAnffw591f+B9n6GwUu4zT3wi17H39S6isFLOmdESn1+/fSCk09lRYNnTuSn7G5koP80ji4tjGIk44gaSbLZqegr8hK9FXM3y4IM3mnXr7qD4u9/9enPqqezIpScLDY+efKS0p7xvp2zIySKUuOyPUMvZVKJVLoqiKF2CKvR28QUI8AVHwyf1/mWdSKFgO95W+rjzFm67eiYZEiB03R1K5arJ5rmDOb4mlJ4s1/1lFYWf+9z3zIx+7sFw3IozKMQsR1HE1S8zZ84223dw9U2h4FrG9NneWQTeFw9BkDRGymiJ2UzGvp1xNUsc7zLV2haKr1x1A4W33PpH8/Wvf5zixx270L6VUTRhcNcOMzDLfefvaPzKAtPN+eXWD/3YeKTlOgV77XlPZe/Ru1hRFKVLUIXeLhNdrUkp9Fbwtg0K3SkxGgDJdVf0u4zJmBkyFjqQPuWYMPrVr/oExTdv5LrV0049x/QW+evSMNtr1T5LtmqVVX+9jmNMoJ7sqvRQY38b/SsnNeXI8W3YfEg6h0d2HsmvGyeZpu7VDreQ9mm5gcNuMGb12APhZ9RdhuP7gxgTP1vqbnA3vKAFAbedbNp0r1m7/jaKF3r4a+K3XfhKGtMcFPLpESplN79tocem6bpCJv3M/VPzz0niQfKGIF0mJ6b5h479ncq+RR36PmVfXUqkI2nhzm66ebz7gl+TeYHsMThUN4O7+a9PffJrFN5153rzxMefTfG+3gV2Y+6fXq/PoTAIeqk3BcftK77r8hDJUwKn4Y4AByA3tryWY4oz6TPsfI99KLnQEsqn6xbeyiInLDT9jYY7GcIAh5O+z/LBSp3GdXfn4VZikpDATbyAiZLdKTUgjYwo+bJe7gIKZZ8W+2K95EbD6sTL43y8H+6Q65jL5emjHY6nD+qqm90kh1kkLPR75ZziyP4WbgWvVndS2NcXmZ07uYrt/geuM7PcqA/v/8A/Ujh7To4G2wLIq9j1Y5cJVpJhAwg59/FocSGUjqTJUyiKoijTFVXoHQmyxM+WVs9dXo/vSGXLSL4mDPJmZJSXjo6wuvr5zy4xv/i/yyi+bOkx5sgjn0DxSoWlXbWSt+mwegsxgbCbxFrUbJAJ0+5zVjqKQhcydI5Oyck+9s8sJ2lVKf7lFWljm0XSbAH62subPc2g4+JSZOO4lizLJPLdnqc7UfrKNjlpJmN/R6r0kRbHfWRR0kRof2+i9Ov27F3VUvIrKCLXo/G6CPIGgeqTcolfO+SNRhq7gatds9uU7ZsUN2KXRnYmw9qGWa4yuf/+68xDD91I8cc//ghzwet4IvEFB/E+mOA5/cAzTiYQT2ccyiTnn2ymTHskdxVFUZRpjir0jgRZItkC/TS+hmKF3qgKY7u91COjgRRArf3pyrUU/5d//ozJ5+ZR/EmnP4/CYu8CU6vy8x1jvRQKMylu6tw9smLVcugG/Go4HT/uilIy7KrdXNRn7OqNGflt/u+0YdPPRL08FDWDBjmOuWFL6HBJ1bWjbmqJqocalQHNBKQhX8fy6XICqG8HqOuXJJM3gXrNxtPzD+SLn5aNwFjGy0XJAzl3LBHlLAOk4e1lZJS/+szlOO1cHm8Xuyheq+2yy1nV//nPPPzt6OgG8zqnyp/1rOOTmYbkGrL4l3NO21ki95vwG9ymY0Jl+qIOvWORbJn4NmNnzjdu1Y3El83kTc11f8m4CagxX7B0Zrjh+s3mP776A4qvWs2NbI898Qxz2KHHUbxSyZryKDuWMOSWtSjKWyfA5wLn1OzL+E2ejwmnSqFz7CBjcB6yU+po0q8V09+REtg05JjWKcX8A+Q35bLWKbnLlDjMDBa449tlzcUbjk2qHcjJuVMSh42qpHQfDvFQyLq6Izj+qmvgTFO26SUXJJOckyzBhvI8QDLyQJJG6DAb2/Qpah8enIflynYzazbvtHnzA+aaa3m0xDlzihS+6pUvNmc99XCK9/GEVURaFWavgTsReqj5v5ngv4HEkvNVpi1priqKoijTGlXo04FWOZTIKVS5iGIURYyV/KyOYt4wjrLJLlCJW/nDQvOr31xD4c9/frFdzy1vjzvlKaZYOIjipRJLx8AMWBXJar0WpbMoJaXHJp7UjrghXuncXDSInQQdg0ugRR9+qQYB1JVSVie/BNUwvFCGjw3sNZAGTIRplUuyc6LAEaKxl+OSpt3ej1uwedLQan+Qm4vbw9vHbiZ7J9VBCF0cP0nWixrP5mv2TYj7l4+McjXL8MgGs2HjLRTfvOUB88IXPZfiL/5/Z1I4ezanBSDKReHLLEU0eJY7aGx/gLQNB9Lqas856UqZdGVUpjvq0Ntkby6XVFXsNa0OmSSJlY0OPapzlQOQ3ioZg/7PvJP3HUlSyfHQQxVz0UWXUvx3v/mTKfbwyI0nncgOpFg8yDoAngmhXs9b43Rj10ee6qXd7/TrrcVRknNr/h0Nl8WubJgAmX+PJAW/K9UiNdQfWaKoljjvrJtrL7S/NM2juo03Xhs6DhkjY8xLD596HFqT83fOr476Zhe3q9wzMvX7OHUXTZy4xa96kRTxe3I5PpdajaeFi+qDplTmQbXWrL2fQjjx447nqQVfe8H55vDD+GErD0j4YOmjn7HXLR2FUXI0PZHIenxx6JmQrxP6ocPRg9BdRElBmb5IOVMURVGmOarQ26STFXq5MkphNpexqosVZy3pEhKabMhjp9KbtlPWTsDTAF/yhedll91ifvzjX1N8y2ZOc+mSY8yhhz6G4viqVBpLg4Ab6TBDUhRxYkHgxmiFhHXn7tWeNJLIWDTiyZsFK/A6QrcsCNFTg5fv2s1q9uGH15lNmzZQfHiYRygLTU8yYTL3eOH0e4qsTAdm9Jr+fh6QrKenaJYv54bFTIbPObBvMlHNXTvX66ceZ+1bDb+dZDKFBq0P8NMalHkS8sLAnkc+z/FduzaaGQOcfi7PVS4PrbrN3H8/V6/MnsPHefKZJ5nzX/pMivdacY7P94GMg+/GZiNQzZSeTXoiyRIbSRpDXeOo/6Voer7KdEcVuqIoSpegCr1NHhWFLviHbkhS6k1T7VitsfrLubpl3oGf31EtMqG0orlEUYcsKg591wd5jCfz+99zo+n3v/8/Vq3zV4pnnXWuKRa5H3uhZy6FmWDAputmG65zGJhCcs5S99uAr8oDqHE+Z4pbdu3eZu65706K33bbLWb9w2soHpd56F9UrPfO4DeFmTN4TJqMfWNIxnKxql4mVa5U+U1jZHTQqnn+cXX8UJefi5YdQeFjTzjFHHUkd9+cN3cxhdmwaH8bX5uIGnddW4K7Xvg3SPIA9fr8mzLujSIIykmjZxwPmY0bH6D4bbf/mcLevtic+xye6PtpTzuNwiOPGpBTo3p3PhJIL2iNP79N+q77oPFW9kJ/frdXWsNuF8jXtZJ2egxluhLEcVxvdjjNTmufOaQuYP85dP84k91fblffe0o6fhqIy3J+CMT2v4D6ioNsOiOSWzRiffntt/PE1K94xevsch4y4HGPZ0d0zNGPt/u7ae+q/MUMqmGyIVdvoCqk5gagCjIcov91JmSntG37Buss2eledjl/PHPTjX+x//K2yw49wjz2sSdRfPHipRTOn3eQGRjgD6AqZU7HluYkj7ghlK8F9/qwBLGpVvkjnnKlZG69las6tm7dSuGN115t/2VHd/hRj6Xw9NPPNMsP4fHlUeVSc7+vp4cbKqOobPNYHPaoKbjqFUzUDKqVXVTVAi655Jf2HPmB8rrX/y2Ff/fKc5JP++VDMDxvQ/tAYpA3Drdoz2Wqcb2kJMvxt2yxp5SU6YNWuSiKonQJqtDb5NFR6MJk0/H3bZUOlslyVrbVqJI0mqKLnhPTVkFz1Qy2HnI1HajFuejX11P8t7+9ksJVq7aaObMOpvghy1ZQ2Nc316pVVtBRJW/yOW5Arbrqjygum2Ivp/+X6642//fLn1Fcuio++9xzzYknnkzxWbPmm107WfFmAlbIuWzRqmDeOEzOM7LGqtzPK8kChDVXHVWtlU2hwK8g1Ro3qqLB9Lrrr6X45ZdzN85tm9eak5/AVSHnPvv5pljg6p2REd6ntzdnSiXuP143I2ZoeBvF166+l8Jh+3dvL5/Ac5/7dPOsZz2J4vO41oq6FMr4XFJ1E8WY+NktTH+GXS8/xP5uWU6L3PJx8JIYw8R7KtMJdehtsv8dOsLm/cdJb9KnZjdMumWw565Uy0lf7gx1fWFHKeOeBF43leGRuim6GeMx7gu47faN5sbreVLim26+i8KVK9ebXMjVMEsXHW1m9HN9+9KDl1BYqZTNT3/6E4rfcvt1Zt5sXv7+D3yIQlQBjQxzVUa1ljHZDNdLhBl+MBj0h4/Z6VXdBzWZrD1hN5wAOvhIdsn4K6g3lvygKhlXVRJkOIziEZsGO/ys6y/+5z9fan71659TvKenx7z+dW+m+Aw34PjKVfeaNWu4//iMmQUzMMDXcfly7sv/V898qlmxgquJZtrL4XXTJ6KobpfxOQeuLz7qx/NZN9iLn9/S+X1PZapp9URFYw8pKdOIpqKlKIqiTFdUobfJo1vl4tMizXZOzSl0jCQIcIpp32SEjenXrFSXz9/Rq0IOJVUz0j8aPLSSGxj/fPV15qEH11F8/dodZvcurmoJ3deZqLK45BKu1jji8GPMaU/ir1KPOJyrbKpWKKPaBtRjfOnKKjuf49Go4ig0tSqfSbHIPU9GyrswJDqBQcrQ/57h31aP/UZT+9sThc6vGvVgJOkfPjSymcIwWzV3330zxX/y0/8yK47h/vgLFvCXnEuWzDcLF/J5Ll4615z6RK4mesxjllHYa18o5GrS9XIXT6pZ8OUuxnZneCV9bStqXELQpjIHklfjsYcUlWmE3MGKoijKNEcV+rSildby8mYvpBi6KwJqbHP7V6s1q8K5Hrgh6xNlizFSOC5DwGaz2eTwEqKbdJnbDc22bTvMpo08ItgDD/BcmK9/3Zus2uZ68aVLD0v6fc+ds4jCefOWmFkzWQXPmDHHKlquO5dxVXgYXdYkVTe+S5hNzw1qPJbBybwBWGReTQTDIzx8cDXiFt8tW9eadQ9zfTjGWAEPP/yQOWihm7SzHplLfn8JRZcfxl+Znnvus8w/f+T9FJ+FNmB3KPnyFsfxx2CRS4q6c4AxamR4XtmwUqnQRM7jIhcZeHnkL54s3u7KNEcd+rSk+bZtP3/glIEM0ITGQsl2/zN9GTkggyoa9xk9HgNjSUdDlLHY4eRleO6GhkC3XT4/01x22VUUf9zjjje33coTcNxzz4MUPvjAGnPLrfxh0dDgqOnr4wbW0RJXiYRhzvT1cvXLCDrKWzDsAY5LcbteBt+SiZmr5Qo1OIJ6XDPlyjDFFy7iKpNlhyw0yw/lB8vpZzyOwvkLZpnZs7kHEHbt7+O+9cefwP3UV656wKxa9RDFZ87os+fFPxYNzaCQw758UVFtJT1VktvKhrFrfc7IwoZ3Z9lwfCRn9oY9p65MF7TKRVEUpUtQhd6p+Fkw5vJjpWyQrkwGYBoX2SdN3IlpS5AMowokFrsxs2mccfna0ts/dq2imSy6EFLUhqwTMtheltldpLHyvvtWU/j4xz/efP4Ln6f4K17xUuqPDXxVL8oeg4cN7mZlPTTEanzd+g1m82auxpGp6mqVVIHbsp2o5WKRq2tmzZxh5s6ZTfEZMwbMwoWs+klEW7C5XIahIT6RfD5jjaLmttvvMU94wikUv/j3v6Hwa1/7D/OZz3ya4osWcVdFIKobV0/eFEAyXpq7YHw8/vE84xKW2YVJfkiYkuYAGLt+MuzdXkonow69U/GzYMzlb8wfYWKHjn3G7leX3h/WGkcM5D/SrLfOx3kiOKJAumgkx7Sh9CiRdOwi1z3c4LufSplXnHHmkym8/oa/mGXLuH/2bbfdamagk7ZF6sPTcWiso7beXh4YyWf8FnkIyHnSb/CWJefvQjwspEqpVbGOa/aKeOkL8jv+34tfZG69jWfbX+mqWWrVisnKGAmWwd1c9z4wgz+qquMkZXRLOimKNuF+XMt1Yxe6n+houdOEtL+HMh1w+kdRFEWZ7uhoiwcUY7PaV/UTqzZ/X6hlV13gqjqiWs2qcFapMggXem5EVvECqOpvf/u7FH/137+awssvv8ycc845FD/ssEPNtdfyJ/dSPRImbwGocimbnh75cpLBKcg0atJLhFS3O9Uosm8STob7ql7w1/vT3VUqLMfzbtDx3bsGzT/8w5so/oMfft9ceSVP2HzGGadTiDSkUba3t9eU3eezBZnW315ZVP8AfzYnuU44YWnIjd1bkL/dnnJGUQRV6IqiKF2CKnRlr5BiI2GjomSgVFMFnDHDw9xF8PLLL6fw2c9+tnngAR4bHPEtW7iB80tf+hKF559/Po2dIojKFfxjynnI8cZjvDRkOUJRy1deyQOPvfSlL022+8xnPmOe85znUBxqHFSr1aTfPti0aROF89zoW/6bxnjIm4Zsi4ZdOQ9FmSzq0JW2KZVKDY4WwHlLFYM4JziltNohRdbD+Yqj3LZtm/nEJz5B8c9+9rMULl682LzgBS+g+Gte8xpz7LHHUtx/SDQ7QiBFWtYBfx9Zj1CWr17NPW9+/etfJ8dfuXIlhU996lPNt7/9bYofcsghYx4a+J3yQLjzzjvNySfzp/+XXXYZhdhfaHXtAB4KwH8wKEq7jJVViqIoyrREFbqyV7RSlNL/268qGB3lAbnQ0DmRCkUxFJW7ahUPDfC1r33NfPOb36Q4Gh2lsfRpT3sahSeeeCL1ZQei9JG2nAeUdPMbwubNm81dd8nwviuT6h855sDAgHnJS15C8be85S0UHn300ck5+1UhfkOogPXPeMYzKD7kBpC/5pprkn3w1iBvE3LrYZmsl2sgv0dR2kFLjaIoSpegCl1pG19ligrt7+cxVYB024Oq/d3vfkfxv/qrvxrTOIjtZBnUdPN6v7Hx+uuvJ6ULJEQj6h//+EeK592nnNhH1C3UbnPxnjVrFilusHz5cnP88cdT/PTTuQviE5/4xDFvEH5dPdZh4CwgxwT+Mql737BhA4VPetKTWr6dyLkhlHOW4+Dv5rp6RdkTXeXQ2/0pesPsHb6j9ZHrL9f1TW96k/nRj35E8XXr1iXVH1INg4eAX00j+0u1Axz8nqogxJH61TxyfD9/JW2EflyO7zdUouEStGq8xPk0nwuqXqTaBemJU5bfi3OUhxXCVs69eRnOTcun0i5a5aIoitIlqEJXHhGiRnEt5fpLNcz8+fOTLoAXXHBBoj7HfknZ2OjpI2n61R6yDGq3VR6Kqkco65urcwDSkfV+2pK+nC+NTe5V6cg+oqpx3rK/f5xWShzXxq+eEpqrcZBeq3NWlIlQh660DaoVpNpBwlYOCHXJ6LcNfIfsX3e/+sKvfhH8ffxtARymOEvZ19/OP444eSDL/fX+saUcSYj0WjlnwX9wYB85vuyDdWvX8ljv6Kcuwx3Ib/Pr4uWY/rkpymRpvEMURVGUaYsqdCWhHXUo24qyhXIVxekrdVHGUK2yj4TNiluWyz7+eTRvC/yqEB9JBzT/Fl+p+2m2UvAC0pNlCFv9Tv+3tfpdb37zmyn+ve99z9x9990UX7SIp9rzFb7si2WtfrOiTISWGEVRlC5BFbqSINdvvOvSar0odCCKVRQsQmn4HE9x+vv7decA+0ua2E6OK/v4japybgj982w+ZrMSl3ruVkpfQHpybH8sFkkL5yPn2Uq1gx07dlCIPumvfjUPH/zOd76TQv96SpqqzpW9QR26MilwbeX6oqqjuY/2e97zHvPCF76Q4k94whMoBBM5KKTXKg/8BkjfAbdyzrK+lSNF2q3Sb1VOZDuMCNnX10dxAf3m/R448sCSfZrPSx44st4/t40bN1LvH+Cfm6Qpja7jXRtFmQiVAYqiKF2CKnRlUkAJy/X1Fef//u//UviiF70o+Qz/jDPOoBDVGKI8fRUr6TSr7/GULkB1jPwt+/sK3s9LvxzIcgn9dX7cP3Zzmn7aeHtorhrC9rIP0vGvjyDn7neL9NOV9f6+/npFmQxd5dCVqQMOS4oK6pGlWuK9730vhehf/Ytf/ILi4sThnHxHJ7RyaFgm+8l6OD/ZBg5PHKl8hAOH7jtKgO1lfwl9/PU+cp5Y56cFsMw/1z0haUkI5Jg4Z/mwStLEdRJH7l87RWkXrXJRFEXpElShK5MCxUSKCtR2szKGspT1sswH62QfPx1R7lCrzSoY28lAWXsaT31PyDHHU9rNvwfIMqhlGVAMg3CJ8pb1wN+v+a3EfztpbmAFr3jFK8zrXvc6ip900kkU+mOsK8pkUYWuKIrSJahCVxL2pGL99aJCRTVDoUq9r6zz0xkvTakzxnrZRvb365EvvfRSc/PNN1McXf/AVVddlQx0dckll1AIJB3sL+csaQL/XGS5zPsJNS2zIMm46UuXLk1mIcL5TlS/jeM1/1ZcI1mG69RcT37mmWcmv+mee+6hEPjKXlEmgzr06UBzDjX4i9RRpWCDRqcylrHZ7jvssaTLsJlUN+RyaVVDs6Oq4z9J0/4n+/jVG1J9gg9vZJZ9CS+++GJqbAVIc9myZRSXEFPRyTFPOeUUCtGzRj4S8s/Nd+g+W7dupVCOs337juTTfFkGZyvHwYQYMhnG8573PArPPvvs5JioUpHf5FfD+LeZXF9Z9tBDD5l3vvMdFP/CF75AIR4iKZPJyzT9FNlvT/sr3YJKAEVRlC5BFXqn4udKcw6R4HILA6hd2UCUmFXI9RbP6kSoYftGxQrVLIoysvGksTLDartaqpivfe0bFP/pz/7HXHEFT67si8BqjVVsNsv71u0xoNJBxti03Wnu3r2bQnRz/OUvf0nx//mf/0mUvSjgpz/96ebUU0+lOKaGmzFjgOJ+iZWXCVkWBN5Ku3Ci4u2/ich2CDNNVSpbNm9Opr3DVHi/cOd8++13UIhknv3sZ1P8xS9+sXnlK19JcVH1uJa+Kpe4NPiCsbMjpecdx/gdfE3DDO+Ll5ysaxuOoqrNJ87PTPKbEEoZaPw9SveiDr1TaZUrsozuWfdHg0P3buC63NgeySJszw6g6qo/ctm8iSOOw+EEzqHXI067WqmZgw5aSPE3/eNbzL989MMUHx1N69CzeT5ALXZVL9b5RHWOX3XF1eYLn/8ixVEfDrAP5hoF559/PjlwUCyycyuVytbR8Xgt8FNSUuHgQBi2+I2E29Du0Kp4+46cEvax2zdXHfnbxHadOPzt27dTiI+r8EACqMsX5/yc5zyHQgyLIHOXjufEpUpIHqT4O3DZGdj8dFmTgFMYHua0+vpxjficJV+xF5UDQsqF0u1oTiuKonQJqtCnE5JTDaLSrzqRFTZsytVGwe7v45S43V42qVUjk8uxuiuX+KvMwcEh86lPfobi73//B0zoGhx7ezmkUuTkQc2p+u99/7vmS19iVX7HbXeYs856GsXR7xo885nPNPPnz6W4T9UeH+AcpHRClWdcdYMIZqwTtS4KN+/OG2D9nhS6NNCKGsc6UeiSJpZJdRR2lRTl2EhDGkJ37dplLrroIop//OMfpxCNrOjJAj784Q+bpzyF40K5nI7rLqdWqaSzMVWraXWYuwR2H2MKTuDjNDMZOSsJsWH6Oydiclsp0wFV6IqiKF2CKvSOBFniKy7RUL6WGqurGnLSxRuUeRKX+lbglKm1yCnrbAiVmqpTkDa2sSIUkq7SdvUvfvlrir7hja+ncNv2beYFL3gBxT/4wQ+Zo448kuKifKE6Jd2aVcWijAtOrWKZAAWdnsH4+NtMpmR7P2tCRI3T7eIqt5Pf7lGybzSFQqPavuSSS83HPvYxil9+2WXmma7d4B3v4K6KZ5/Nby5A9rn44t+bv3nZSyn+5z//2Rx9FPeJr9VcHmUbT7xU5vr0Hm+M+MarMT6TvATKNEAdekeCLBFnBucnt5yE8CTsTfzMq4ujbXWHUu8P2Vr6nmBT3rhk3+GLzhlgbcZtEbtEM9aJlStutv58wTpbrqq46aabKPynf/onc/nlV1H85X97PoWf+NQnzbx5PPZ3tRKZ3h7+nL1SdTPc5/JJOuyw+VyipFE1rT7Bdn4VCPB7jyTLml4691S85SHiI2n5JA2klsg5d1w9gPNKqnzyXDUCRkf5ehWL9nrVeD362KORFNx+++0U4kOm733/+xQ/ZBn3Px8eGTYrVhxF8bOffpb51re+RfHkQ64wZ68PHwvXBn8z/u+VAoFlzb8J18ldu2Td2N+tTC9aaAxFURRlOqIKvSOBshLliOxpVIRcTSIKPVVVDTmZLPZVmp/OWDVW99T46tUPUXzxYp7IGGo461Tqzl07zUc/+lGKf+EL3Oh50kknmn//93+nuHw6X6tFpqfIqjzwtEMr1Y8GQPwNRKEDX6VPhPwyq9ntv2N/2yMBKl4UOBCBLg2ZWO8r+OZBxPC3xP2Jrf/whz9QiLebNWvWUPyNb3wjhR/80AfM/fffS/HVq1eaZ7lqGvml1MM/5t+JU0O300awnZxzeu4pvkKXvNm3162ZvXE1rd6WDiTavWbpXaYoiqJMa1ShdyTN6qo5i/Ac5mcxaruFJCepvtyvgwdYJtva0H15iC5xIJ/HZBG87Z133J7MOvTjH/+Iwuc+51xz++23UvwFL3h+Munx+97HE1y8+c1vMVn36aJ8XWrQyBrycaIYA1RRNK33blKE1ZpTti4d1A0nX6zafaSoilrG36KMRd3vLdKq4NepS9rN58lb8hsIwHb+24W8VcjvwW+QSTmKPcWkDUHSx/Yf+zg3mn75y1+mcMH8g8wPf/hjimOQsEwo58f5lbH7iEKndNxJNdzNyWljoZQDASt5g/2lgvfG1ahCb++aqUPvVPxsCeRmlMKd3ox+5iW70PZ+lY3gnGM9bbiTJOEjne81z3vuC8zWrdsoftmlPK3cV77yZfOOd1xI8ac89cnmu9/9DsWXLllCYUDOiROLq3y+GWqoc8enftL+uTQ6PyANpNkwPT9xtHDizdUvWCfFt9GhNx5nIiR932knx3Q9fUAgHcDrATlTIH3Y4bDlweNXqQh+lQy+FJUvROXcsU/BNUhfd911FP7937/WrFn9MMUxYNffvfJlFBeHDkcn54HTlRqh5FekP4dJ/h57bdShdy7tXjP/LlAURVGmMarQOxHkiMuV2Aoy1zstxYoWUWQQhq7WJBmsCVUBMkCW6Bv+2tBVidi0k5qFDO8cWnkufc8ffniDWfngSor/4Ac/pPBb3/qm+ehHP0Lx97z3XfZfKTYS2iMlnd6dTqBqHbdsL6TD3pTMtgVduwfBz0yu6t4h5yiHbnkKdtnbL+R+6l/72tfMi17E/fn/+Z8/ROHg0G5zopvdCMPlJG8QHjWu2TFj2kstdbtTch7J77HvKVOoiFWht0+710wdeqficqVaTntIJNgy7t72DdVquDJfcw4Zg1ZVyq6vd55f5XG/Vyu8PgdnL/dJIJ49NiV7LJAJsuaE49lZPLyeX/t/85uLzKmnPoHi2Txe9d0TJXHolmSER3HoHBD2eFNZ0OTntE2bJ4VnVuoI9w2t7kD/+fftb/3A/NO78RA1ZudObrtYtGiBWb12NcWrlbLNc37qSwehLIZA8NJNyourpQkyeApwvJ48iNOrOBWOVB16+7R7zfZCNymKoiidiCr0jgQyi/tnU4NahvtyxzHLK7T/ieJCdQzGHae4KC77N4ZcZXgh0hGtg0/74zonUK3ycaDkb7udZ+p5xd++2m7DDXdf/ep/UPi4xx2fKFMkJNEEFKNE6TnsaUnhiu05N6+eCuwvs/9OZZEOvNTb/0GTVZzYyo08TPl6yy33UxxfjYJdu7aZr3yVvwG44IJX23/lrDjfUT4qZV7WW7QJNB22GkHV80Iaq55IN1KF3hmoQlcURTlAUYXekUA9s3KG4qrXWS2PjlJgMPZTMpyIfSRLXBo68aFiXx/H3YeYpL3cmFEGXaKlWv7uu++j8PrrbzIXvv3dFF+8eLm59I88I9E8N7othmuVQzb0yvNKj5QkmTTIL1mk0F18suyVOGv3IHvDXsig5NrY39T8u/zrJOsQyPwdqDafNYvj11/PbRpPO/vJ5sijDqH4by/+PzNjBme4dGUs2PyVsX1Qr+4+XjU9RQ6xSo4lb3YN7x57dfEnRhV6+7R7zdShdyR1+0rMjZr1esFs3kBR89CDuygMzIykoMfWe9bs6zOQMczDMGeqJc5WGUM8b2/wKOIR+crV7TZd3udlL+P+zVu37jRz5/Jn/l/4wtfMQQt4IuYoYu+FkRGlQQ1tr4HrG4/eEgDOIClJ0jga26Weh5raKpfk4C6cSh7ZD2l2Uv4tKOsQZl3ejYxUkk/7pXfTvfffZt52IY9quXBJv/nGN79K8b7eGRSauMeUR/mpncv2JA/7KB6hMJMbMfPn8/pjjppJoT9934HuSKcre6E1FEVRlE5EFXoHggypuWyplANz203DFL/6T9wwVinZ1+uMm64mqJnINXDyi7R9rc73mpEhXtbjprUZHNxmsjlW6DNm1c1ll/2W4r/+za8onDNrsXnD699K8QVWnUcRd3eUhjXMIhTKrD301WejQuezdqqOd7GFSwbhtWS8+JSyP44i6nXyKlZus8kq34xVy9WqmzO0t89EVfd65HaP4mGzeu2dFP+Pb3zCzJ7LVS5vv5C7NxZys01pmPO+kJtpLz9rt3KV3/LqmZ3m0MN4n/NecgKFOKagCn16og69A0GGiJvEbGw3XMPVI1dc+gCFUXWOda78ao2qj8Dd61U3Rkgu7DH1iF/Re1CZahkc3GqKfezkK9HD5jvf4d4rK1euo/A97/6wmTWTJ4GuVEJTGuVEi0WuvC3YB8Pu3UMUzxXg2KWqxdUBwBk09WeGQxfqdn13FDT8tr13dq0cZatbENc1zPK1rZZr9sHK17K/n51wkCmZcm0rxTdtvdt8+cufpvjJpzyRwnPPeYlZMHcFxXdsK9mywZXoxV4+fljYbRYu4jz8m5ceQWGYTGPX+jyVzkerXBRFUboEVegdCDJEFHrJCqub/sJ/XX3FWgrj6CBTj7m7Qq1eNtksq2mZJi0wWRNVWGHV66za58zNmW07VlH8dxf/t7n+hmso/sY38Cv6vLlLTD7vVL9BdQunL1UuoTtGQiLgnEJvgFcGXisoFDr/sqnCV5R+vLNoJXxxBzbfhWigjF3DdT5r88NdS2ncxLcG+R7O23Jto7np5isp/ouf/4DCc5/7MnPCcU+leH/xIJPLcfVLpcpvWbX6FnPEkfwWd955PMCaKvTpjyp0RVGULkEVegeCDImcmo2iwFx7Fcuyq/60nsK4tsiqN64bD8LYqjteL2NyZOnzUd4/k+HO67V4o7njrusp/tOf/MS86IXcXfHEk1jF1WOocn6+BwH253g63vq+UGz7o6h1i7K01yoZZyew+ePyxuUx9TGXnxrutlnHY7z84Y//TeHVV11p3nDBOyl+0PzDTG8Pz+0qZaVU3WwOPZzL0Ev+mucxzeVsbkundMtY11AfR7l3yzWf/qhD70CQIZhiDMChX3MVx6+60jn0aKF16O5z7RD9v51Dd7UfuTBjqlXub5zNskMv9g+bd77jHyl+8MFHm9e/nkfyq9UGKJSPl0DjTevidAp64+43qBHZuzUlKg9a8fWWIFOzD3Z26HFmI4Wf+9y/mYzL07e95X1WBPDwEdI42tNbM4cdzlUuf/1iV+WSndihc7Hwl8m2Wi46BZFfiqIoyjRHHXrHAtWDV23+i4E6EhN4Oxi+FIVFcdn0FDNkGAId9slPfsoUe2eS/d0rX0PKH5bu3wRe7ckQx4IW2yhTB1Wt4PYUa4QmaMImlC3IJ1STZU0Y9JG9+lVvMDt3DpJdfsVlZuasorMesnIFjaOQ+dZcOs3VKfhbG0enF+rQpxXiXTGaIt+H+DOwdzesWhkly9hX8NHSDrJVq+8n27J5s3nOuS8iQ3f1bLaHLHHcDfh/J0dS9jfJwxR5LM7VLbRROHVy7ABtKtYC00u2eOHh5pxnPY/s0kt/ZdY/vIpstLyTLJuLaZ5Smat0ItSxTx/UoSuKonQJ6tA7FU+dJaAvN1laD8OLrIKyls2x5fKxCXNVsh/+6NtkS5YeZlasOIls9qyDTFQLyBpf6fG3NTquiyuPPn45QN5T/mMhGytoq86t1SpspZGMecpTnkGWzc2yZeA7ZDNm5skwJ/XQ8A4ypXtQh64oitIldJVDRzerdmy6gSFqYahDb0W1OkoW10vmppuvIRse2kb2ohe+xBTyA2SVCuYcrZOhnzn3NffVuCrzjsO1daAqmyzjlLp7W6vXMW5+aDJBL1kYDpjB3RWyv3/1BWbDhtVkt99xI1mlOmj6+/Jke2K63i8HIqrQpwFS0yLQgFjNCy2FnizZzl1bzB8v/S3ZY08+iWz27HnWEfSQ1eO8yeX6yBqqXJzTUDoD5IRYAvqhu77o4tyRfdIwbgwctLW4YLJhP9mihcvMkqVs//d/PyWbObvHjIzuJJODNDttdeTTD3cnK4qiKNMddegdCoRRszhqrHJhY3GFME6qXB548B4zbFU67MwzzyRDF8WoFpJhCjp83p984k+GlJTOx8nphlvXKmkobGtBEJKVSlGi0HPZPvOMpz+LbPvWrWS333GzyebqZK3KWitUrXc+6tA7FLlBMUUkarrpP3tDJTcVvjiyFlujT7+tFQoZsmv+fJU55PAjyRYvPpgsDAs2LbZstmD3s48DSgrOAaZ0HsigcZwoPYBx+8LSB3ytFpH1FPI2V9EvPWdGhmNz7DGPJcvmesiuvPIyk8ujR1Sa977DRlz6n0u5i2Nb3pwpnYk6dEVRlC5BHXqHIg1enmhisWYtzKABDArK/lGv2LBKtmbNSrKNGzeY0590JlmlEpNhtL6oVierWoMuS7XZVOFOeDyVqUyAvWYtGr4bLqe8xvEfZIVCSFau2L/4Jc709sw0YVAke+bTn022auVKs3nzJjJM/i0TgAv+l6GYvg4W2o0krnQmmjOKoihdgjr0DkUUNOq5A5tNMM4uqPOA+iHD6kHJ6jK2m26+jszEsXnMcSeTSUMoz3TDqWZDNIjaWCrCLA1/PEKcjOTDuaRFViqTJUA9NmyP1y7Nu0qtRlaLKpTnnO9ZMzJcI3vsCY8nq46W7NvcOjKhZvcTIruj1J0jDgNah97ZqEPvcHDviPNF9YsYO0gMrlQz1WiQ7M47byU74cST7at2niyHXg7WYns/yg1a6LE3r/0btm/hc0qRv/1lyuRJnoYpLRbJg54f9lxW+vrwrQEmreDNc9leshkD88iOPPIkc9std5LJPvl8+pERqlWkURRVLTBZrlUunYvmjKIoSpfQVQ5dFMVkrZPBJMAwH0wxB4Nqr1vJDQuzNbNz50ay4cEtZKc/6SlmaHdElssOkGUyoYnrNTIo88imAWsE12Rvr4tV4bJ7q8Y8pU1wIUV5I47MsuY+95f3HjYM3xCyubewWi025Qpb1WZ4JpMji2u2HFg74fjHm0v+cCXZ9m1VMtwSrapUJE2l81GFriiK0iWoQ+9IUu0F1QRxBJPGUeqOVkejFZRX1axcdS+ZCfJkixcdbEIM0GQtrkGV5aySxzqbpLWaleZSv/rIkXMFflx5xMjlhGHCaLKaMyh1LG/crlDIkdVNZPL5DBnNYuW6rBZ7ZpAdc/Rj7fYoXIG54YabyAAaRmG+ShfVjobRVgpe6RzUoXcsfIei/Qn3DwzVJjAehInXR3HJ3HvfHWTLDz2EDNUyMrJiHNlXbGu488MQfYnZkO4ja9tyHkScilax7HvcJSYSR45xG2CtW7Sr1bqzCkoHWRRXzOjoKJl8l9DfO8csOugIsssuu4IM5OxTHiaNoEAaRWHaKNrZaM4oiqJ0CerQO5Qg+c+KNFe9EoT11DJscRyZ9WvXkR1x+BFkqJIJMlkySsBapVqzao3/s2/gplK2Ss3a1CMSXmkb/9Ilg6ixSbtzs2WCgCxrVXYmY+PWoKyLvf1k+GIYFmaLZtGig8muv+5GsloNjZ8ob3zIarVKVrcFiszEVu1D8e/z/q7KPkIdegdCbrxmva41zGNQKIZk5dpuMhNW7U3Kn2vX7Vv48GCJbNniZWSVUok+OoJV4xpZEKL+PSSLq/bV2r42w+z9Toa6erHJgQ2t4eYnQ7yVufW0vdIOyaW1FtQLbHGRzTp1npoknZ4EFsd4yNdNNpunXkxidbs9mesNU6vGZsmSZWTX/uUGsjAbmNjmGQzHxEMBVo2sY7cGRy5VLuze2fyHgPLoog5dURSlS1CH3olYtWMFNRmpH6eFTMb+YQ3VL6KOdu4YtDsgGzNm3pyDyHLZAiUDwjBLBmUu/diRpryiP3JEG+7JlLbxLx/yivLMvr/BaDGPgw+STe0/MP/TfaypOxMFj8b1pUsPJqtW7VuctV07S8mbH6pfhFw2R6a9WzofdeiKoihdgjr0DgftT9KHWGajoZpT17i1ZfN2q7sKZHPnLCALM3m7fUCW1pGj+yKnR5Cc46jSmdTtKxSb/SMxkuk2wl0SYfTlqNsWPVphcVyzf2O5e7uz//qGxtLDDz+MTOYjvfnmm83oaESWzQamUq2QSUMoVH1kVTrMnYyz8Wg8pjL1qEPvRLx7JbL3gVSvSIMUV8PwK/SOnbtNX08/GT4eog+IbLZilMYGs//U7bs4jLqxu/TtKjKlwyCnLdi8o3/9/EoLCcpBEveqWcRR05+yjX2wk9n4woWLyarVMlmhp9cU8iEZBl7M5/JkYSZLxuWPv4WgtNKTUToEdeiKoihdgjr0aYA0dIkgitAnGH9bGxkZMf39/WS1CANv4VXbZmwYkOHlmC22ysoudybKXelQGutZsMTBfyeDcVnjv13ZwMxU1oIM5hR13VRjGN7SbN4HebJahCEBimTZsJds86bNSflohI+JYSeUzkZzqFNx9zHebtO3ZHtHwshF8y0cxTWTzWfJqrUqGX3a7ywBr/Do1G6N9+b/lM6kOWc4t1OzGZqYv20c1cnQUyV9aGM7Rh4CaEupVmOyFSuOJbv+uhtMpWLIslljyuWILIowjgsq/fBQ8MdykXNQpgqpQpusqUNXFEXpEtShdyhQQ2QkgnhgpjiukPGoe1YlkeHJzEMDoOcDLBPaZQaf+sO4JwQtQ48Ha1Fcta/VaGRNjmJN6Shsvk+cOxPnGarokmoWq9alii6uW4VNY0Okaruvr58sX+gxmLQIVikjDMlkQDdSgH6jqNJxqENXFEXpEtShdzhWFFkVhXGoreELUQzSha6HViCR2RwU1RVk0CURyglfA7L6kro1UnxoTMW2drl0gVQ6FeSZb3YRTDR70pYCS5FB27CV9B9HGZHygrczGKcJpR6bQqFAhp2qdhUsh7lI3T74ahSWsQlJuaIDKB2H3tEdCu4ZGBqn6nFAhk/66bN+DLLkllUr9oa12Uhm7z4Y/Hc2zJFJOvjkP7R/w5Dt2KbR7D97oHUPCKUd5AHbbK2xGWetXq8llkx0Ybgajg1Omx15kEE8MpVKyWRzdWc2FffQr0Ulsp4ier5UyW688XqyQ5YvN5jcHwZHjtOC4SMjGM4yzIRkPuL4lUcfvT0VRVG6BHXoHUqihq0sqlgV7lsmk7WKySpwawMDA/YVmcetFlVeLlVMuVwlS/oiWyEXOcsEOavubdLWwhDKnU2OyeqMlaO8YsMw8TBMaR8Z9Mq/3r751z5Vu4hgPd6seJA1WSbqWUwG2JJ86+/vSeJDgyO2rGTIBvr7yMqlksnlsmQym9HiRQtNT48hA9KtEenDcGRR+vSH0nHAZSgdiFSd1irGFPJ9ZH29M8iQbVKVMmf2HLNl20aychmOvGJv0rwpFHrIcrmAjCYviDJkWetY8Gk3TKYkq1ajxGFjmABB6tqlpwNMaR9xjnKNYVFUJ5O8hInzNHFgoiobalrkAVyPQzJTxyf5BbJMENJDmo0/HBrcXbXboL4ua8tOry1HdbIq8toaVdvV8WDAA4Onl+vt6zW77X4wOGyZk1TAR2vpAyctI0rnoHenoihKl6AOvROB+HEGVRZZKQ0rlUbJyuVRUykPk82ZA8VuFZW1cnmILGsVeRxVyETxZa2yTkZetFtDpcNEhaG/cS6Hz8GhyLlx1e9NAxL1qLSNvOn45l9j++cYC20+wAhbDmB2MRkNukWK3S13+yRlx+ZyIc+GfBZy9g8YNrr6qj+RVaojZEuXLjYDA6jG48Z0eYPgoeFimw6q7/g/JjmY0iGgCCiKoihdgDr0TsQKINE+PUV0G2MLw4hsxoy8KfQYsr4BqCZ0XYzMjp0byOr1ETM4tJWsUrFK3hr6FdfrmPC3av+uW0XOXwRKNzW/HpdntZHGUMTRuIb9uZFNaR9R0PK2A+R64pI2Xn+sS/Odt2XD/mT2jwjzfFqr1WwGIlusyRfAvcWskcbymn1T6+kJyEZLu8mCoGbLyhayYrFINm/e3CR9nKso8yRxa/Kfsn9I3+ImZ+rQOxSbN2QjI2i43E1WNyWy0dIOe5uNkM2aXTBhrkz2wIO3keULkZk5K0eWy9XIjN0vDGtkQVCx6XFjaPrenh6T41xAGnthIHQbKG0h1RcY5EoelqlDb+Egg7qpWkcNg9NO+qHbBzcsk62abC4iK/TElOewWjRIVo12W9tFFmbLJoqHyEwwTJYrVMzmLWvITjrpBDLksUwqDVDFAsvYcgCjj5Tsci4B9pzTP5QOQR26oihKl6AOvSOxEilA17Gq6es3plCsk2WyJWdlq4+GyKC25s7tIdu4+QGyUnWbzVkr7a0FYYmsXN1h6sEIWaEHw6uyWpeBvSASU0uVY7oMVQFc/aK0j7zd+N0/xfy3HlHvUYRB2ERNj5pcD5sJd5PFZqfJhINk9WCXzd/NZEG4iyxfHLVvbYNk+LtU3UjWN8OWKWtDo+vMvQ/cQHbMisPJikWcD6r2+I2iXLHlxpoQQsJDmY+x8RAJr1J+f6EOXVEUpUsIrAqb6BGrPCpApZUpFmSK5gMf+irFP/6Jr1M4e/YhFIK5s3NmzeqHKF4aRfdFY57whLPMaLlI8fkLDqUwg68NDeYbNWbOjAWmp4DujsbUYm51y+V7TR6tpBZ8gYq5JEFvbx+FvE5U1mTVFrZLi9fYguanM148ZTIFdbJnxuxd0edRTcZj4jR5gDTeJkJrtKVWw1eeVpFb0IgJatGo2bptNcULPRkT4xNfy+7dOylEl1XUpYNyuWwGh3ZxvIrlyO+6eXj9WorPnjXD7NyxneJDQ1soLFc2mKi6leJf/8ZnKXzNa15KHzwBfFWa/hYOMWG0lAv77mb/5att3zEoVB591KF3EGlW1O2NzQ49ny+aT37qixT/p3e9n8KFiw+1jnaA4tVK2d7cfLNv2sQ36OMe91QTBOyIZ1jnDXr7ZtltOf2Dlyy3Ny53Tq7VMFgXO3RMYwdwUxd7OV7I83fgPT29Nk2+cTNBNrnxC+47cfS0kPPHV4cAn6JnXSdo9LTIui4bkau2QQMhDxYG14CJrcUd83HQKCtOI0babrVcJT8me9oNGxwMqi8Ap2VTRvWG2xgjWMLBAlkvjcFA1vnQKvc75SjUG8Qtw3qk64NrIMtwbaQao1Zj541l4tCHh4coxAN9+/Z1FMcAW7L/6MggheXyoD0m749lO3exo47iUQrxXcLWrRso1tOTNSPDuyk+NMiOvVzdbdPgh8OGDez4Z87sNcWi++7f4v8mQa4n+tHbNRRXOoe05CuKoijTGlXoHYSfFaKKSqWS+exnP0fxT3/6MxSaIDQD/bMomrfKureX4/fes5LCefMWm2WHHEnxgf45FGIbzA8JFi1capUWq+Uw20thNixYlc7qDDPSFN0bgCjoMJOzx3LrrUJ3Qs2qx/QVPEJ/aIso3EYFZ5UzDS4Flce/E+OIoCoIBPY3xTFvX6+zzuAqCbfMBnJ9kquEwW7cX4FT9zSQsHuTwPbNxZtPjZdBbaJREsgp49zT4/CPbEjHKuVsyBvzFNzArqNz4f0lfT+MXJVJmM0kylxUOd4aUO0CRkdHKKzXK2bbtvVJvIpBfSzVCitwfNlZrfC21eqw3Z+Xl8usxOv1slm16n6Kz5rVlyj0XbtYodszMscdt4LiV1x5KYUYqMunUY0zch3SPFY6CXXoHYSfFVKXmsvlzL333kvxlStXUbhj5y57g/PNNjJUsnGKmq9/7T8pXLN2g3njG95C8a1b+LV6yG5XKHA1zMMPb0qqNzCeOqhUIzMywlUBcOjSF3lkmJdh8K7+fq53z4Z5e0PzTS4OPZ8vJHXCUuWCj1XQWwLQKI8Zdhg8hZkNrTPP5QoUD22a9l+Ky2WoW5cpxyHEhzSHFvSTBpizobHKhc8p3TZ1zuyw5JpziGRkvYTofy3OzWBav4idJ/VEsWA7cdi1CPnm9nPLUMctVU+Y1HtoiKtNxHnDoefz/GArFPh6oppk7jy+3uh/Lv6zf4AfwAP9PfY38zn1FLNm/jx+qMeuGgajLR588EKKj47stg9kPqeDDppP4cv/9mXmvPNeQvGvf53bZoB/bcRp+w5d6Ww0pxRFUboEVegdhJ8V/istql1ApcKK8P4HHrTLuNG0UqmZwd3cs+EPl1xG4Ze//B/mH974Zoo70WziKLDb8h8PPrjKLmd1hyntwPDwsNm0mRtVUaUyOsrH3LmL1STGcJ0xg9Ud5G42y0pS1FtPsdemyWnJshkzZlh1yiq1t2em/U2umsdVvaA6B42hILDqXdajKgZkrNIXhY7rwdPrYVtRjmkDpoCqF6l+AdKwSWN4W/xeJiBtwORl/npR5fhd8tvQWFmr8TWJIs4DbCfVKBS66hdR6CP43Nelj+OVyy4/XZULfkJPD7+p9PZy76SeYt4sW7aY4tVaObmmBy2YR+HcubNtPnGaM2f2myOOWE5x7p1ij2Pza8WKoyheyIem5hrZ77nnbgpf+9oL7BvfgxRfvpx7QkmZADieVqtMPzj3FUVRlGmPKvQOws8KdPkDUIZSvyoNZ/fee48ZGpLubXWzbv3DFN+xg/sif+ADHzTHHXs8xY866hgKobqlPvuee+6lunlQc41tI6NWoW/cTPHQqu/BQU5/1y5uTLNFxcyaNZtiOGYuz4oSy0HB/t1c54pukPJWQP3eMeGCBfXtAP3doxqfE9R61tWnS5oUujQpbYmLUrd/u0UJqD+X+nQg17RRdXMc+4tCT9fzhNxAVDmuu1z7yCr0TIYVts0l+hfrkv7jVqHL/lyfjreoMhlAmmmjKIfYXhR6Xz/Xkedsnq9YwXlXsepaGnoXzOe3pDlzZtkfwOc8a9YMc/jhh1Fc1H/RpnfUUdwwjrF6+vo43fe9770Ubtu21fzxj9wYOnMm17/bBF3YGr98qnrvTPaLQ9+bQxyIBabVDYP+3dKgJlUv69evSxwE+nZv2MD9jbdt20bhb37zW/Of//ltir/3ve+jcO6ceYkjveuuuxMHUna9JtBwt9tVr8DRDrn+0DudQw8zWevI+DzwMMCsSIBG+nNIY6icOxy7OOxsWLTbclzOA2lihiWABtN8gasb5DL4VQDUD90h1wk1K0k/cvoXIfq5pMi5JPvYUIoWzlf2T699ehx/X1kf1zHGPF8zV3NETlqqV7CPOHQJkX/ixFH1I2nJPvhb+n/393PDNfJ1nnPeeGCIQ581ayaFmHpQhgzo6+szBx3E3xvIg6e3t9ccc/TRFMdD7KGH+OOzc845h8Lvfvc75rzzzqM4ZraaCDlfuR5K56JVLoqiKF2CKvQOouE6eb+/WSGVS6OJaif155Se9KneunWrOf64x1D8rW99G4Xvfs97k37iUKZSnRC6dECy3ir02K2Xt4Ieq57RXRKMjI4k5yKNp4ODrvHUImnv3m3VvftJ6PY4MiR9rCmw28VmaIgbdNENU94AKq66yf/6FGHSSOlC/D1GYdtA4uM17Ml1ggpu7nuN7eXaSrUUtkuTqZvZs7mPfm9vqmzl7QTKWbbNurRnz56VqHEcD43FoMd9ZYvfIPuL6q5UqibnhmLAz6m7vvvye7Cd9OfHMjmmVNXhOGgwB3j7uvDCCyl+5ZVXUnjnHXfZHeU68c7pb0yvIZBjtrqWSmehDr2D8K+TfB4P51N2vVsK7gbn8ct5PZyaOCj5EMbe3ua973kPxb/6VR4H5sEHHjRz5nEPCcKlb+9mCmK/hwOcizuXtD98wWzauJHiVeucJH8wWzzYsWNH4gDF8eLBIp/716oVs8s9EJIeNvYc0LuG4/YfV60gPXgkHYC4PCh8hy7bJNfOhhKHQ5f6fAHnLecEpyfr5cGAh4qsl7FtsJ1cY9TnyBAJEuIcZJ+B/gGbD3x8eTAsWrQwqXLBdjNncrUJ+ukDHFucqkAO3VVr8bVuXI/fmNwj9nDlcpo+wDWWh8RGm29LDz6Y4t/9zncpfPnL/8buT1G57A34ZdG/FxMh4NJWOosWWakoiqJMR1ShdygioFvBo/2N3SARbFYxUnWH5RjXy+WCCy4w//yRj1AcG1ZdY6R86YmeIzLgFvIrl2cFJo2W8gXj3gNlJ+cseevnMeKdnOf+9ZYLzcG4tPVzmhOzO7v7Jo4wbILTXm4zvBU0LwPJaIk5DDHAK175yleZq6++muIrV/JwAHixkZeXdHcvIY8D/V6cTqhCVxRF6RJUoXcoEyt0MHYDuWZRtWYVGK//5Cc+QeEHP/RBs+ohHgtmyZIlJpNjBS4qLpsLjKseNa2qR1EnK/kodcPt0Uqh+/jLJN5qOzD2t08t/vFwTuOd1z7GO6y0cTSocjkNG5f8ljyCghdV/rSnn23+939/TvHnPOc5FKIuXL5v2NP9qQp9+qAOvUOZ6IqNe2Um2OkJp5ya9Kq44orLk3EC3WCHDbuiR4o0Akp/d9mXSbduPJeJ8gxHlP387VrtM3bZRNdj6vGPPtFv3Hf4R0H1mPR4sTeTC9IHLDXsyv3igqhWNUe7fuiHH364+cUvf0FxycdSuZSMdZ8erfVvU4c+fdAqF0VRlC5BFXqHMtEVG/fKuJ1KoxUa3AnIbEbXXHOtOffccyn+sY99zPzjm/+B4vJIR39y6cKHBlAMGQt4YmD0DU+nH+MD8cHQRTJlb/Jscvu0X4KmP9Uyvx3lCzIkAitvEFL3xPSqDA1yI7jk4fvf/z7zne98h+K33XabWXrwUopLl0rON772Mv78eHmhCn36sF8curI3+NkyuRtqdIQdQLGYOgDJXdyTH/zgP1P8k5/8pLnhxuspvvxQHqWPx/rgjavWaeSkP3PMD4QwE3pnsadz85dJvNV2+479W4j5aFP7i1Iwyqb0+5YQk2NIn3Pf3/7l2msoPO20J5svfvHfKf7GN76R6tQBPwgstmBID6Z8gcd5Ge8XqUOfPsijWVEURZnmqELvSJAlrVTw5JTSyMhoMq62KDO8iktWn3zyyWbLVh77/JZbbqGwr7/P62uOuYIawUBTUv3C59a8hf+3i9PhXHw/qTx/MunJ0FhlNBnGXpupwr81RSXLKJv4SlXWY9XKlSspfvJJJ1GIQbi+9z3+KjTrvuD1iWo1GuIBpIdp/ctUoU8fVKEriqJ0CarQOxJkiWQLQlFIEyul2O3DqpPjMnAXyLrxXrds3WJOPJGV3LErjqPwkj/8wVPzQTKWN746BRinJXZp0VgvCd65YTzbMUx8zgm0mfzmvafd4vzI1Ode7DvZ07NJy7cIrU4RA6lJfTrGNj/3XO5fLl8I33TDTaboBg+r0kBfrMYrSb15PunbHrhJr8dDFfr0QR16R4IsaZUtE99Y6R516wycc/ZuxrTnSmjuvOsuip95xlMofP7zX2C+/W2eZJqLBKcmY3rDedRdPKCql+ZzsX+3dOiThHZt9ZvbY/84dLfPIz/dCWl1OZPRFLPpCJAve9nLza9/fRHF//KXv1B4xOFHmmw2TSCZSMRbhiEFQOrQW/8gdejTB61yURRF6RJUoXcsrbJlskpp8ln6zW9+i8I3vOEN5vzzz6f49773PQpBOqxs62d/Opxq1io+jifbPgrKbv8o9Mnhn4scB8skLrMLSfdD0GofgDHNQcHrk/7KV76Swl/+8pfmT3+6iuLHHMODsWHf5iF5m0kP1d41A1N53ZS9RxW6oihKl6AKXSG++c1v0gco4GUve1kyMYaM/SFqEvjqTBrmoNRluSh0TI4hy3wVOpW0W5z3Rmk2H2MyafgTQ/hdSQGuk1xHWYfrJftgmUweIhOOvOpVrzI//elPKX7RRReZpz/96RSXfXBO471VCY/k1t+b66ZMPerQD3B85/LlL3+Z4m95y1vMK17xCorD0QPfOcC5NztoOBJxSgK+cJRZf/YXnerQBUzpJw9Jcc64bs3OF+tkGULM/gTe/OY3U/jrX//aXHzxxRQ/9dRTk20lP3FOezovdejdx8SPcEVRFGXaoApdIaDsRHVhUKe3v/3tFD/22GMpRMPbrFmzKO6rSWmsgxKX/f0iJVU1UmUw1bRbnPdGaTYfo5008CYj10/286tcBP8ao2+5VKk8+OCDFEKdH3/88RRHQ6lM5i1vREh7T+f1SG79vbluytSjDv0AR177mx0uRugDz3zmMymcP39+0vvlpJNOaqgTFlr1xDgQmeiWgiNEVRRoVR3lV4Ghbhy8/OUvNwsXLqT4z3/OE1VgjHPZHxNt9/X1Udw/tjrdAw+tclEURekSVKErY4BKFBU5MjJC4bOf/Wxz7733UvzDH/4wNZwCedWHwhe1Pjo6SqE/y9GBpBbllvJvLXmjQWOyXLNikQdQA8190j/0oQ+ZT7jpAzFt3H/+J3/FK9eUhmJwar65ukbpHtp1z6rQFUVRugRV6EqCPzSrIMUDiv3d7343xdFH/fnPfz7FP/WpT1G4bNmyRHn6yrxVXXu30+qWavWGIm9BuDZr1qyh+Gte8xoKL7300uTavuMd76AQ+HXsQqsuo0p30K57Vod+gCPZD0chTgGv/1IF4DtnAT0sXv3qV1Nc9n/Xu95l3vSmN1FclqH64EBumPNvLf/BJtdk06ZNFH7jG98wH/jAByh+wgknUPhf//VfZsWKFRQXJw58Ry5gfavlyvSnXfespUBRFKVLCOzTvd6sopqfCgeyylLGgvKxY8cOin/+85+n8KMf/ahZsmQJxT/3uc9R+KIXvaihLElcypNfrqAym5dje4m3UqGTUaZ7KsvN3Taxvd+AKfhdDXFcIMf2v/5s9RUtjuF3C/3hD39IoVSlYJ/3ve99FH/9619PIdLzz735vJUDg+byuyfUoSv7hHvuucd8+tOfprg4LEx1h6oYgDp3KVdSntAbRnp6+E5PHCq2952jVAMJWC/VROJc/frkZkcK/GW+85VjAtlfluF8W6Xf7NgF2U/W4xg/+MEPKP7BD37QPPzwwxQ/77zzKPzKV76SXAdJG+cmcaD34IFJuw59YnmjKIqiTBtUoStt06paAUi5ue+++yj80pe+RAaWL19u3vrWt1L8ggsuoBCqVNSsr0al73tvb++EQwv45bLVMiBVKrLe/zoTy6QqpdXXraKwkaaki/OVNwVJC+tk6rcZM2aYdevWUfzrX/86hXhjWb16NcXRmHzhhRdS/Mgjj6QQv13S9K+rnDNo/l3KgYFfBiaDKnRFUZQuQRW6sk/w65YFqF9Rph//+MfNb3/7W4pv3LiRQsyQJLPunHHGGYnilTpuKGSpn25V3411zWVzvH0Ef5m/rYA3gma1jt8h54TjieqXZVu2bEmGsv3FL35hfvazn1F8zpw5FL7tbW9LhiNeunTpmGNC3UPZA7n3mq+n3oMHJu0qdHXoyl4hVQRSNuB84CCBOFzfmWI7GdP7V7/6FYVwfL/73e8ojsG/TjvtNIo/+clPpvCss86igcBAqwcGyqmUVXGScg4Ay/y/gb8M5zRR2farQeQ33X777eaGG26gOJw3wG+Q4+PcZaTKc845h0IgDwGkI+cs18dvuJV1CP1zm+g8FUVolAqKoijKtEUVutI2qILwGxdBszIWpFHTV7n+vvK1JKosZGjYq6++mkIoehk29uijjybFDg455BAKjzrqqKRhUao3fBWPc/LPBbRaBmSc8bVr1yZVQjKE8DXXXGPuuOMOim/bto2qTcDZZ59N4Qte8AIaQAvg+PI75b5BKNfHPz//DUDWy7npPajsDerQlUeEX1YkLg4Nzqm5msTHfzD4/cPFucHJ/vGPf6T4zTffnIx38uc//5lC9IZprvrBOWBKNoDjN9eHo++7nN/1118/pmzjHGRscZlA4pRTTjEnnngixc8880zqsQPk2Dhf+R04fqv7yT+/ZueOZZKWgPPAckHvQWUyaJWLoihKl6AKXWkbX3GK2mxVjQElLCpUtgN+eWqlQiXE/pJuqzKIfa+44gqKy3ZQ5NKbBkpbqnzkOFC+g4ODFEejpSjjBQsWUIiqnWbwG1r9Thn33R/XHOcs5yrb4thyfKyT9XJspN/8+/zrAlr9fkVpZuxdqCiKokxLdPhcRVGULkEVuqIoSpegDl1RFKVLUIeuKIrSJahDVxRF6RLUoSuKonQJ6tAVRVG6BHXoiqIoXYI6dEVRlC5BHbqiKEqXoA5dURSlS1CHriiK0iWoQ1cURekS1KEriqJ0CerQFUVRugR16IqiKF2COnRFUZQuQR26oihKl6AOXVEUpSsw5v8D5EN8kdPlaQoAAAAASUVORK5CYII=;" vertex="1" parent="1">
          <mxGeometry x="425.01" y="240" width="314.77" height="330" as="geometry" />
        </mxCell>
        <mxCell id="BEOgguU4NRtYo971RN-K-4" value="&lt;font style=&quot;font-size: 32px;&quot; face=&quot;Verdana&quot;&gt;a) Anti-Aliasing&lt;/font&gt;" style="text;html=1;strokeColor=none;fillColor=none;align=center;verticalAlign=middle;whiteSpace=wrap;rounded=0;" vertex="1" parent="1">
          <mxGeometry x="30" y="569" width="390" height="81" as="geometry" />
        </mxCell>
        <mxCell id="BEOgguU4NRtYo971RN-K-5" value="&lt;font style=&quot;font-size: 32px;&quot; face=&quot;Verdana&quot;&gt;b) Aliasing&lt;/font&gt;" style="text;html=1;strokeColor=none;fillColor=none;align=center;verticalAlign=middle;whiteSpace=wrap;rounded=0;" vertex="1" parent="1">
          <mxGeometry x="387.4" y="569" width="390" height="81" as="geometry" />
        </mxCell>
      </root>
    </mxGraphModel>
  </diagram>
</mxfile>
